<svg width="27" height="20" viewBox="0 0 27 20" fill="none" xmlns="http://www.w3.org/2000/svg">
<path d="M4.00454 0C4.00384 0 4.00304 0 4.00234 0C3.75474 0 3.52187 0.0965165 3.34602 0.271921C3.16824 0.449265 3.07031 0.6854 3.07031 0.936784V14.9837C3.07031 15.4988 3.49102 15.9189 4.00824 15.9202C6.18872 15.9254 9.8419 16.3799 12.3621 19.0172V4.31672C12.3621 4.14211 12.3175 3.97807 12.2333 3.84233C10.1649 0.51123 6.18996 0.0051123 4.00454 0Z" fill="#858EA9"/>
<path d="M23.1081 14.9838V0.936784C23.1081 0.6854 23.0102 0.449265 22.8324 0.271921C22.6565 0.0965165 22.4235 0 22.1762 0C22.1754 0 22.1746 0 22.1739 0C19.9885 0.00520044 16.0136 0.511318 13.9451 3.84242C13.8609 3.97816 13.8164 4.14219 13.8164 4.3168V19.0172C16.3366 16.3799 19.9898 15.9254 22.1702 15.9202C22.6874 15.9189 23.1081 15.4988 23.1081 14.9838Z" fill="#858EA9"/>
<path d="M25.2416 3.23975H24.5624V14.984C24.5624 16.2992 23.4908 17.3716 22.1736 17.3749C20.3241 17.3793 17.2745 17.7409 15.1147 19.7851C18.8501 18.8705 22.7878 19.465 25.0319 19.9764C25.3121 20.0402 25.6017 19.9743 25.8262 19.7954C26.0499 19.6169 26.1782 19.3501 26.1782 19.0637V4.17635C26.1783 3.65992 25.758 3.23975 25.2416 3.23975Z" fill="#858EA9"/>
<path d="M1.61584 14.984V3.23975H0.936608C0.420266 3.23975 0 3.65992 0 4.17635V19.0634C0 19.3499 0.128336 19.6166 0.352043 19.7951C0.576367 19.974 0.865653 20.0402 1.1463 19.9762C3.39042 19.4647 7.32821 18.8702 11.0634 19.7848C8.90368 17.7408 5.85411 17.3792 4.0046 17.3748C2.68748 17.3716 1.61584 16.2992 1.61584 14.984Z" fill="#858EA9"/>
</svg>
