<svg width="31" height="32" viewBox="0 0 31 32" fill="none" xmlns="http://www.w3.org/2000/svg">
<path d="M15.3619 19.8182C20.1065 19.8182 23.9528 16.1143 23.9528 11.5454C23.9528 6.97653 20.1065 3.27271 15.3619 3.27271C10.6173 3.27271 6.771 6.97653 6.771 11.5454C6.771 16.1143 10.6173 19.8182 15.3619 19.8182Z" fill="#0066FF"/>
<path d="M20.1854 20.5946C20.6054 20.3783 21.0891 20.6965 21.0891 21.1674V27.3401C21.0891 28.4855 20.2872 29.0455 19.2945 28.5746L15.8836 26.9583C15.5909 26.831 15.1327 26.831 14.84 26.9583L11.4291 28.5746C10.4363 29.0328 9.63452 28.4728 9.63452 27.3274L9.65998 21.1674C9.65998 20.6965 10.1563 20.391 10.5636 20.5946C12.0018 21.3201 13.6309 21.7274 15.3618 21.7274C17.0927 21.7274 18.7345 21.3201 20.1854 20.5946Z" fill="#0066FF"/>
</svg>
