<svg width="28" height="20" viewBox="0 0 28 20" fill="none" xmlns="http://www.w3.org/2000/svg">
<rect width="28" height="20" rx="3" fill="#D7FFD8"/>
<path d="M23.0306 7H18.7324C18.9828 8.41882 20.3599 9.75419 21.8622 9.75419H25.284C25.3258 9.629 25.3258 9.42034 25.3258 9.29515C25.3258 8.04325 24.2825 7 23.0306 7Z" fill="#27B1E6"/>
<path d="M19.1077 10.0045V13.468H21.1942V11.6319H23.0303C24.0318 11.6319 24.9081 10.9225 25.2003 10.0045H19.1077Z" fill="#4FAD50"/>
<path d="M11.7629 7V13.4264H13.5991C13.5991 13.4264 14.0581 13.4264 14.3085 12.9674C15.5604 10.5053 15.9359 9.75419 15.9359 9.75419H16.1863V13.4264H18.2728V7H16.4367C16.4367 7 15.9777 7.04173 15.7273 7.45903C14.684 9.58727 14.0998 10.6722 14.0998 10.6722H13.8494V7H11.7629Z" fill="#4FAD50"/>
<path d="M3 13.4682V7.04175H5.0865C5.0865 7.04175 5.67073 7.04175 6.00457 7.95981C6.83917 10.3802 6.92264 10.714 6.92264 10.714C6.92264 10.714 7.08955 10.1298 7.84069 7.95981C8.17453 7.04175 8.75876 7.04175 8.75876 7.04175H10.8453V13.4682H8.75876V10.0046H8.50837L7.33994 13.4682H6.42187L5.25343 10.0046H5.00305V13.4682H3Z" fill="#4FAD50"/>
</svg>
