<svg width="25" height="25" viewBox="0 0 25 25" fill="none" xmlns="http://www.w3.org/2000/svg">
<path d="M12.9573 22.8182C18.4801 22.8182 22.9573 18.341 22.9573 12.8182C22.9573 7.29533 18.4801 2.81818 12.9573 2.81818C7.43443 2.81818 2.95728 7.29533 2.95728 12.8182C2.95728 18.341 7.43443 22.8182 12.9573 22.8182Z" fill="#0066FF"/>
<path d="M9.62915 15.148C9.62915 16.438 10.6192 17.478 11.8492 17.478H14.3591C15.4291 17.478 16.2992 16.568 16.2992 15.448C16.2992 14.228 15.7692 13.798 14.9792 13.518L10.9492 12.118C10.1592 11.838 9.62915 11.408 9.62915 10.188C9.62915 9.06802 10.4991 8.15802 11.5691 8.15802H14.0792C15.3092 8.15802 16.2992 9.19802 16.2992 10.488" stroke="white" stroke-width="1.5" stroke-linecap="round" stroke-linejoin="round"/>
<path d="M12.9573 6.81818V18.8182" stroke="white" stroke-width="1.5" stroke-linecap="round" stroke-linejoin="round"/>
</svg>
