<svg width="31" height="32" viewBox="0 0 31 32" fill="none" xmlns="http://www.w3.org/2000/svg">
<path d="M15.6383 19.8182C20.3829 19.8182 24.2292 16.1143 24.2292 11.5454C24.2292 6.97653 20.3829 3.27271 15.6383 3.27271C10.8936 3.27271 7.04736 6.97653 7.04736 11.5454C7.04736 16.1143 10.8936 19.8182 15.6383 19.8182Z" fill="#0066FF"/>
<path d="M20.4618 20.5946C20.8818 20.3783 21.3654 20.6965 21.3654 21.1674V27.3401C21.3654 28.4855 20.5636 29.0455 19.5709 28.5746L16.16 26.9583C15.8673 26.831 15.4091 26.831 15.1163 26.9583L11.7054 28.5746C10.7127 29.0328 9.91089 28.4728 9.91089 27.3274L9.93634 21.1674C9.93634 20.6965 10.4327 20.391 10.84 20.5946C12.2782 21.3201 13.9073 21.7274 15.6382 21.7274C17.3691 21.7274 19.0109 21.3201 20.4618 20.5946Z" fill="#0066FF"/>
</svg>
