<svg width="21" height="21" viewBox="0 0 21 21" fill="none" xmlns="http://www.w3.org/2000/svg">
<path fill-rule="evenodd" clip-rule="evenodd" d="M10.6134 0.818347C9.99916 0.849771 9.38984 1.33081 8.91911 2.26005L7.13196 5.83435C6.89114 6.32867 6.24472 6.81031 5.69971 6.89903L2.46763 7.43137C0.401634 7.78627 -0.0800093 9.2819 1.40294 10.7648L3.92523 13.2871C4.3435 13.7054 4.58432 14.5293 4.47025 15.1377L3.74778 18.2557C3.17742 20.7146 4.4956 21.6652 6.66299 20.385L9.69227 18.5852C9.94478 18.4325 10.2762 18.3506 10.6134 18.3394V0.818347Z" fill="#0066FF"/>
<path fill-rule="evenodd" clip-rule="evenodd" d="M10.6133 18.341C11.0039 18.328 11.4023 18.4099 11.6948 18.5868L14.7241 20.3866C16.8915 21.6795 18.2096 20.7162 17.6393 18.2573L16.9168 15.1393C16.7774 14.5435 17.0182 13.7197 17.4365 13.3014L19.9588 10.7791C21.4417 9.2835 20.9601 7.78787 18.8941 7.44565L15.662 6.91331C15.117 6.81191 14.4706 6.34294 14.2297 5.84862L12.4426 2.27433C11.9374 1.27044 11.2725 0.786235 10.6133 0.81995V18.341Z" fill="#0066FF"/>
</svg>
