<svg width="18" height="23" viewBox="0 0 18 23" fill="none" xmlns="http://www.w3.org/2000/svg">
<path d="M18 20.625C17.9529 17.6083 17.0129 14.8652 15.3415 12.8792C13.6799 10.9053 11.428 9.81824 8.9999 9.81824C6.57183 9.81824 4.31991 10.9053 2.65828 12.8792C0.988526 14.8631 0.0491015 17.6024 0 20.6154C0.944181 21.0882 4.85133 22.9091 8.9999 22.9091C13.4859 22.9091 17.1244 21.0989 18 20.625Z" fill="white"/>
<path d="M8.99985 8.88312C11.5174 8.88312 13.5583 6.89456 13.5583 4.44156C13.5583 1.98855 11.5174 0 8.99985 0C6.48229 0 4.44141 1.98855 4.44141 4.44156C4.44141 6.89456 6.48229 8.88312 8.99985 8.88312Z" fill="white"/>
</svg>
