<svg width="334" height="205" viewBox="0 0 334 205" fill="none" xmlns="http://www.w3.org/2000/svg">
<rect opacity="0.6" x="334" y="6.10352e-05" width="205" height="334" rx="12" transform="rotate(90 334 6.10352e-05)" fill="url(#paint0_linear_0_144)"/>
<rect x="334" y="6.10352e-05" width="205" height="334" rx="12" transform="rotate(90 334 6.10352e-05)" fill="url(#paint1_linear_0_144)"/>
<mask id="mask0_0_144" style="mask-type:alpha" maskUnits="userSpaceOnUse" x="0" y="0" width="334" height="206">
<rect x="334" y="6.10352e-05" width="205" height="334" rx="12" transform="rotate(90 334 6.10352e-05)" fill="url(#paint2_linear_0_144)"/>
</mask>
<g mask="url(#mask0_0_144)">
<path d="M191.529 68.0478L262.601 68.0478L262.601 136.463L191.529 68.0478Z" fill="url(#paint3_linear_0_144)" fill-opacity="0.6"/>
<path d="M49.3831 136.463L120.456 136.463L120.456 68.0478L49.3831 136.463Z" fill="url(#paint4_linear_0_144)" fill-opacity="0.6"/>
<path d="M262.601 68.0478L333.674 68.0478L333.674 136.463L262.601 68.0478Z" fill="url(#paint5_linear_0_144)" fill-opacity="0.6"/>
<path d="M120.456 136.463L191.529 136.463L191.529 68.0478L120.456 136.463Z" fill="url(#paint6_linear_0_144)" fill-opacity="0.6"/>
<path d="M191.528 -0.367197L262.601 -0.367194L262.601 68.048L191.528 -0.367197Z" fill="url(#paint7_linear_0_144)" fill-opacity="0.6"/>
<path d="M49.3828 68.048L120.456 68.048L120.456 -0.3672L49.3828 68.048Z" fill="url(#paint8_linear_0_144)" fill-opacity="0.6"/>
<path d="M262.601 -0.367194L333.674 -0.36719L333.674 68.048L262.601 -0.367194Z" fill="url(#paint9_linear_0_144)" fill-opacity="0.6"/>
<path d="M120.456 68.048L191.528 68.048L191.528 -0.367197L120.456 68.048Z" fill="url(#paint10_linear_0_144)" fill-opacity="0.6"/>
<path d="M191.528 136.463L262.601 136.463L262.601 204.878L191.528 136.463Z" fill="url(#paint11_linear_0_144)" fill-opacity="0.6"/>
<path d="M49.3828 204.878L120.456 204.878L120.456 136.463L49.3828 204.878Z" fill="url(#paint12_linear_0_144)" fill-opacity="0.6"/>
<path d="M262.601 136.463L333.674 136.463L333.674 204.878L262.601 136.463Z" fill="url(#paint13_linear_0_144)" fill-opacity="0.6"/>
<path d="M120.456 204.878L191.528 204.878L191.528 136.463L120.456 204.878Z" fill="url(#paint14_linear_0_144)" fill-opacity="0.6"/>
</g>
<g opacity="0.6">
<rect x="73.5412" y="142.5" width="37.6079" height="51.3257" rx="5" transform="rotate(90 73.5412 142.5)" fill="url(#paint15_linear_0_144)" stroke="#397026"/>
<rect x="52.8577" y="147.662" width="25.8094" height="10.7248" rx="5" transform="rotate(90 52.8577 147.662)" stroke="#397026"/>
<path d="M22.1116 149.874L43.5406 149.874" stroke="#397026"/>
<path d="M52.0288 149.874L73.4579 149.874" stroke="#397026"/>
<path d="M22.1116 160.95L42.3585 160.95" stroke="#397026"/>
<path d="M53.1794 160.95L73.4264 160.95" stroke="#397026"/>
<path d="M22.1116 172.027L43.5406 172.027" stroke="#397026"/>
<path d="M52.0288 172.027L73.4579 172.027" stroke="#397026"/>
</g>
<path d="M288.604 21.7854L299.633 21.7854L299.633 32.4014L288.604 21.7854Z" fill="#C59FE2"/>
<path d="M266.548 32.4014L277.576 32.4014L277.576 21.7854L266.548 32.4014Z" fill="#C59FE2"/>
<path d="M299.633 21.7854L310.661 21.7854L310.661 32.4014L299.633 21.7854Z" fill="#C59FE2"/>
<path d="M277.576 32.4014L288.604 32.4014L288.604 21.7854L277.576 32.4014Z" fill="#C59FE2"/>
<g filter="url(#filter0_i_0_144)">
<path d="M23.4068 86.1434L23.4068 80.9038L21.9761 80.9038L21.9761 80.0407L24.8248 79.6245L24.8248 86.1434L23.4068 86.1434Z" fill="url(#paint16_linear_0_144)"/>
<path d="M30.6941 80.9405C30.6941 80.4549 30.7979 80.1223 31.0056 79.9427C31.2134 79.7632 31.6203 79.6734 32.2265 79.6734L35.6794 79.6734C36.2856 79.6734 36.6926 79.7632 36.9003 79.9427C37.1123 80.1223 37.2182 80.4549 37.2182 80.9405L37.2182 81.3567C37.2182 81.6709 37.1674 81.9117 37.0656 82.079C36.9681 82.2463 36.7286 82.4442 36.3471 82.6727L32.3982 84.9804L36.3026 84.9804L36.3026 84.0255L37.5426 84.3622L37.5426 84.8763C37.5426 85.3619 37.4366 85.6945 37.2246 85.8741C37.0169 86.0536 36.6099 86.1434 36.0037 86.1434L30.3507 86.1434L30.3507 85.5558C30.3507 85.2701 30.4122 85.0498 30.5351 84.8947C30.6623 84.7396 30.8848 84.5662 31.2028 84.3744L35.8511 81.6199L35.8511 80.7752L32.0231 80.7752L32.0231 82.1096L30.6941 81.7791L30.6941 80.9405Z" fill="url(#paint17_linear_0_144)"/>
<path d="M41.9111 86.1434C41.3049 86.1434 40.8958 86.0536 40.6838 85.8741C40.4761 85.6945 40.3722 85.3619 40.3722 84.8763L40.3722 84.3499L41.7521 84.0745L41.7521 84.9804L45.3767 84.9804C45.6353 84.9804 45.8069 84.9416 45.8917 84.8641C45.9808 84.7866 46.0253 84.6315 46.0253 84.3989L46.0253 83.9276C46.0253 83.6909 45.9808 83.5338 45.8917 83.4562C45.8027 83.3746 45.631 83.3338 45.3767 83.3338L43.1065 83.3338L43.1065 82.281L45.1287 82.281C45.383 82.281 45.5526 82.2422 45.6374 82.1647C45.7222 82.0872 45.7646 81.9301 45.7646 81.6934L45.7646 81.369C45.7646 81.1282 45.7222 80.969 45.6374 80.8915C45.5526 80.814 45.383 80.7752 45.1287 80.7752L41.8093 80.7752L41.8093 81.5832L40.4803 81.3445L40.4803 80.9405C40.4803 80.4549 40.5842 80.1223 40.7919 79.9427C40.9996 79.7632 41.4066 79.6734 42.0128 79.6734L45.6501 79.6734C46.2563 79.6734 46.6633 79.7632 46.871 79.9427C47.0787 80.1223 47.1826 80.4549 47.1826 80.9405L47.1826 81.5281C47.1826 81.9076 47.0872 82.1892 46.8964 82.3728C46.7057 82.5564 46.3686 82.685 45.8854 82.7584C46.4238 82.8074 46.818 82.938 47.0681 83.1502C47.3182 83.3624 47.4433 83.6705 47.4433 84.0745L47.4433 84.7539C47.4433 85.2844 47.3246 85.6496 47.0872 85.8496C46.8498 86.0455 46.4259 86.1434 45.8154 86.1434L41.9111 86.1434Z" fill="url(#paint18_linear_0_144)"/>
<path d="M55.1629 86.2169L55.1629 84.7172L50.0695 84.7172L50.0695 83.6338L55.1057 79.6L56.581 79.6L56.581 83.6338L58.2088 83.6338L58.2088 84.7172L56.581 84.7172L56.581 86.2169L55.1629 86.2169ZM55.1629 83.6338L55.1629 80.7385L51.4875 83.6338L55.1629 83.6338Z" fill="url(#paint19_linear_0_144)"/>
<path d="M65.8267 83.2604L66.2083 79.6734L72.0139 79.6734L71.8994 80.7752L67.2066 80.7752L67.054 82.03C67.6305 81.9729 68.1371 81.9321 68.5738 81.9076C69.0146 81.8831 69.4152 81.8709 69.7756 81.8709C70.8863 81.8709 71.7193 82.0545 72.2746 82.4218C72.83 82.785 73.1076 83.3318 73.1076 84.0622C73.1076 84.8213 72.8151 85.3721 72.2301 85.7149C71.6493 86.0577 70.7082 86.2291 69.4068 86.2291C68.7243 86.2291 68.1074 86.2067 67.5563 86.1618C67.0095 86.1169 66.5453 86.0516 66.1638 85.9659L65.8267 84.7172C66.4838 84.8315 67.1027 84.9171 67.6835 84.9743C68.2685 85.0273 68.8302 85.0539 69.3686 85.0539C70.2122 85.0539 70.8057 84.9743 71.1491 84.8151C71.4925 84.6519 71.6642 84.3805 71.6642 84.001C71.6642 83.6419 71.4967 83.3848 71.1618 83.2298C70.8269 83.0747 70.261 82.9972 69.464 82.9972C68.9553 82.9972 68.3957 83.0196 67.7853 83.0645C67.1748 83.1094 66.522 83.1747 65.8267 83.2604Z" fill="url(#paint20_linear_0_144)"/>
<path d="M77.1137 83.2236C77.1052 83.2767 77.0989 83.3297 77.0946 83.3828C77.0904 83.4358 77.0883 83.5073 77.0883 83.597C77.0883 84.2214 77.1731 84.6091 77.3426 84.76C77.5164 84.9069 77.8958 84.9804 78.4809 84.9804L80.3567 84.9804C80.8188 84.9804 81.1367 84.9253 81.3106 84.8151C81.4886 84.7049 81.5776 84.5009 81.5776 84.203L81.5776 83.848C81.5776 83.546 81.478 83.342 81.2788 83.2359C81.0838 83.1257 80.6895 83.0706 80.096 83.0706C79.617 83.0706 79.1273 83.0849 78.6271 83.1135C78.1311 83.138 77.6267 83.1747 77.1137 83.2236ZM77.2027 82.2443C77.7157 82.1708 78.218 82.1157 78.7098 82.079C79.2058 82.0382 79.6933 82.0178 80.1723 82.0178C81.2576 82.0178 82.0015 82.1402 82.4043 82.3851C82.807 82.6258 83.0084 83.0604 83.0084 83.6889L83.0084 84.5642C83.0084 85.1028 82.8218 85.5007 82.4488 85.7578C82.0757 86.0149 81.495 86.1434 80.7065 86.1434L77.864 86.1434C77.0162 86.1434 76.4354 86.0006 76.1217 85.7149C75.808 85.4293 75.6512 84.9069 75.6512 84.1479L75.6512 83.2971C75.6512 82.0933 76.0836 81.1629 76.9484 80.5059C77.8174 79.8448 79.0404 79.5143 80.6174 79.5143C80.6768 79.5143 80.7404 79.5163 80.8082 79.5204C80.8803 79.5204 80.9757 79.5265 81.0943 79.5388L82.0227 80.5793L81.5903 80.5793C80.1617 80.5793 79.1295 80.7058 78.4936 80.9588C77.8577 81.2078 77.4274 81.6362 77.2027 82.2443Z" fill="url(#paint21_linear_0_144)"/>
<path d="M87.8983 86.2536L91.5229 80.7752L87.078 80.7752L87.078 82.1708L85.66 81.9321L85.66 79.6734L93.1253 79.6734L93.1253 80.714L89.6089 86.2536L87.8983 86.2536Z" fill="url(#paint22_linear_0_144)"/>
<path d="M101.474 79.6734C102.081 79.6734 102.488 79.7632 102.695 79.9427C102.907 80.1223 103.013 80.4549 103.013 80.9405L103.013 81.5281C103.013 81.9035 102.918 82.1851 102.727 82.3728C102.536 82.5605 102.202 82.6972 101.722 82.7829C102.218 82.836 102.583 82.9666 102.816 83.1747C103.049 83.3828 103.166 83.6827 103.166 84.0745L103.166 84.7539C103.166 85.2803 103.045 85.6435 102.803 85.8435C102.566 86.0434 102.14 86.1434 101.525 86.1434L97.2331 86.1434C96.6227 86.1434 96.1987 86.0455 95.9613 85.8496C95.724 85.6496 95.6053 85.2844 95.6053 84.7539L95.6053 84.0745C95.6053 83.6868 95.7218 83.3889 95.955 83.1808C96.1881 82.9686 96.5485 82.836 97.036 82.7829C96.5612 82.6932 96.2263 82.5544 96.0313 82.3667C95.8405 82.179 95.7451 81.8995 95.7451 81.5281L95.7451 80.9405C95.7451 80.4549 95.849 80.1223 96.0567 79.9427C96.2687 79.7632 96.6778 79.6734 97.284 79.6734L101.474 79.6734ZM100.953 80.7752L97.8181 80.7752C97.5595 80.7752 97.3857 80.816 97.2967 80.8976C97.2077 80.9752 97.1632 81.1323 97.1632 81.369L97.1632 81.6934C97.1632 81.926 97.2077 82.0831 97.2967 82.1647C97.3857 82.2422 97.5595 82.281 97.8181 82.281L100.953 82.281C101.207 82.281 101.377 82.2422 101.462 82.1647C101.551 82.0872 101.595 81.9301 101.595 81.6934L101.595 81.369C101.595 81.1282 101.551 80.9691 101.462 80.8915C101.377 80.814 101.207 80.7752 100.953 80.7752ZM101.099 83.3338L97.6592 83.3338C97.4048 83.3338 97.2352 83.3726 97.1505 83.4501C97.0657 83.5277 97.0233 83.6868 97.0233 83.9276L97.0233 84.3989C97.0233 84.6356 97.0636 84.7927 97.1441 84.8702C97.2246 84.9437 97.3963 84.9804 97.6592 84.9804L101.099 84.9804C101.358 84.9804 101.527 84.9437 101.608 84.8702C101.693 84.7927 101.735 84.6356 101.735 84.3989L101.735 83.9276C101.735 83.6868 101.693 83.5277 101.608 83.4501C101.523 83.3726 101.354 83.3338 101.099 83.3338Z" fill="url(#paint23_linear_0_144)"/>
<path d="M116.678 83.5726C116.195 83.646 115.706 83.7011 115.21 83.7378C114.714 83.7705 114.213 83.7868 113.709 83.7868C112.624 83.7868 111.878 83.6664 111.471 83.4256C111.068 83.1808 110.867 82.7462 110.867 82.1219L110.867 81.2527C110.867 80.714 111.051 80.3161 111.42 80.0591C111.793 79.802 112.374 79.6734 113.162 79.6734L115.998 79.6734C116.846 79.6734 117.427 79.8162 117.74 80.1019C118.054 80.3875 118.211 80.9099 118.211 81.6689L118.211 82.5197C118.211 83.7235 117.779 84.6539 116.914 85.3109C116.049 85.9679 114.828 86.2964 113.251 86.2964C113.12 86.2964 113.02 86.2944 112.952 86.2903C112.889 86.2903 112.827 86.2862 112.768 86.2781L111.846 85.2436L112.272 85.2436C113.705 85.2436 114.739 85.1171 115.375 84.8641C116.015 84.6111 116.45 84.1806 116.678 83.5726ZM116.755 82.5809C116.768 82.5075 116.776 82.4381 116.78 82.3728C116.789 82.3034 116.793 82.2443 116.793 82.1953C116.793 81.5587 116.706 81.1629 116.532 81.0078C116.358 80.8528 115.977 80.7752 115.388 80.7752L113.525 80.7752C113.054 80.7752 112.73 80.8323 112.552 80.9466C112.374 81.0609 112.285 81.2731 112.285 81.5832L112.285 81.9443C112.285 82.2586 112.384 82.4708 112.583 82.5809C112.783 82.6911 113.183 82.7462 113.785 82.7462C114.209 82.7462 114.671 82.734 115.171 82.7095C115.676 82.6809 116.204 82.6381 116.755 82.5809Z" fill="url(#paint24_linear_0_144)"/>
<path d="M122.179 84.9804L126.98 84.9804L126.98 80.7752L122.179 80.7752L122.179 84.9804ZM120.774 81.2037C120.774 80.612 120.88 80.21 121.092 79.9978C121.308 79.7816 121.713 79.6734 122.306 79.6734L126.853 79.6734C127.45 79.6734 127.855 79.7816 128.067 79.9978C128.283 80.21 128.392 80.612 128.392 81.2037L128.392 84.6131C128.392 85.2048 128.283 85.6088 128.067 85.8251C127.855 86.0373 127.45 86.1434 126.853 86.1434L122.306 86.1434C121.713 86.1434 121.308 86.0373 121.092 85.8251C120.88 85.6088 120.774 85.2048 120.774 84.6131L120.774 81.2037Z" fill="url(#paint25_linear_0_144)"/>
<path d="M134.229 86.1434L134.229 80.9038L132.798 80.9038L132.798 80.0407L135.647 79.6245L135.647 86.1434L134.229 86.1434Z" fill="url(#paint26_linear_0_144)"/>
<path d="M141.516 80.9405C141.516 80.4549 141.62 80.1223 141.828 79.9428C142.035 79.7632 142.442 79.6734 143.049 79.6734L146.502 79.6734C147.108 79.6734 147.515 79.7632 147.722 79.9428C147.934 80.1223 148.04 80.4549 148.04 80.9405L148.04 81.3567C148.04 81.6709 147.989 81.9117 147.888 82.079C147.79 82.2463 147.551 82.4442 147.169 82.6728L143.22 84.9804L147.125 84.9804L147.125 84.0255L148.365 84.3622L148.365 84.8763C148.365 85.3619 148.259 85.6945 148.047 85.8741C147.839 86.0536 147.432 86.1434 146.826 86.1434L141.173 86.1434L141.173 85.5558C141.173 85.2701 141.234 85.0498 141.357 84.8947C141.484 84.7396 141.707 84.5662 142.025 84.3744L146.673 81.6199L146.673 80.7752L142.845 80.7752L142.845 82.1096L141.516 81.7791L141.516 80.9405Z" fill="url(#paint27_linear_0_144)"/>
<path d="M157.782 86.1434C157.176 86.1434 156.767 86.0536 156.555 85.8741C156.347 85.6945 156.243 85.3619 156.243 84.8763L156.243 84.3499L157.623 84.0745L157.623 84.9804L161.248 84.9804C161.506 84.9804 161.678 84.9416 161.763 84.8641C161.852 84.7866 161.896 84.6315 161.896 84.3989L161.896 83.9276C161.896 83.6909 161.852 83.5338 161.763 83.4563C161.674 83.3746 161.502 83.3338 161.248 83.3338L158.978 83.3338L158.978 82.281L161 82.281C161.254 82.281 161.424 82.2422 161.508 82.1647C161.593 82.0872 161.636 81.9301 161.636 81.6934L161.636 81.369C161.636 81.1282 161.593 80.9691 161.508 80.8915C161.424 80.814 161.254 80.7752 161 80.7752L157.68 80.7752L157.68 81.5832L156.351 81.3445L156.351 80.9405C156.351 80.4549 156.455 80.1223 156.663 79.9428C156.871 79.7632 157.278 79.6734 157.884 79.6734L161.521 79.6734C162.127 79.6734 162.534 79.7632 162.742 79.9428C162.95 80.1223 163.054 80.4549 163.054 80.9405L163.054 81.5281C163.054 81.9076 162.958 82.1892 162.767 82.3728C162.577 82.5565 162.24 82.685 161.756 82.7584C162.295 82.8074 162.689 82.938 162.939 83.1502C163.189 83.3624 163.314 83.6705 163.314 84.0745L163.314 84.7539C163.314 85.2844 163.196 85.6496 162.958 85.8496C162.721 86.0455 162.297 86.1434 161.686 86.1434L157.782 86.1434Z" fill="url(#paint28_linear_0_144)"/>
<path d="M171.034 86.2169L171.034 84.7172L165.941 84.7172L165.941 83.6338L170.977 79.6L172.452 79.6L172.452 83.6338L174.08 83.6338L174.08 84.7172L172.452 84.7172L172.452 86.2169L171.034 86.2169ZM171.034 83.6338L171.034 80.7385L167.359 83.6338L171.034 83.6338Z" fill="url(#paint29_linear_0_144)"/>
<path d="M176.649 83.2604L177.03 79.6734L182.836 79.6734L182.722 80.7752L178.029 80.7752L177.876 82.03C178.453 81.9729 178.959 81.9321 179.396 81.9076C179.837 81.8831 180.237 81.8709 180.598 81.8709C181.708 81.8709 182.541 82.0545 183.097 82.4218C183.652 82.785 183.93 83.3318 183.93 84.0622C183.93 84.8213 183.637 85.3722 183.052 85.7149C182.471 86.0577 181.53 86.2291 180.229 86.2291C179.546 86.2291 178.93 86.2067 178.378 86.1618C177.832 86.1169 177.367 86.0516 176.986 85.9659L176.649 84.7172C177.306 84.8315 177.925 84.9172 178.506 84.9743C179.091 85.0273 179.652 85.0539 180.191 85.0539C181.034 85.0539 181.628 84.9743 181.971 84.8151C182.315 84.6519 182.486 84.3805 182.486 84.001C182.486 83.6419 182.319 83.3848 181.984 83.2298C181.649 83.0747 181.083 82.9972 180.286 82.9972C179.777 82.9972 179.218 83.0196 178.607 83.0645C177.997 83.1094 177.344 83.1747 176.649 83.2604Z" fill="url(#paint30_linear_0_144)"/>
<path d="M187.936 83.2237C187.927 83.2767 187.921 83.3298 187.917 83.3828C187.913 83.4359 187.91 83.5073 187.91 83.597C187.91 84.2214 187.995 84.6091 188.165 84.76C188.339 84.907 188.718 84.9804 189.303 84.9804L191.179 84.9804C191.641 84.9804 191.959 84.9253 192.133 84.8151C192.311 84.705 192.4 84.5009 192.4 84.203L192.4 83.848C192.4 83.546 192.3 83.342 192.101 83.2359C191.906 83.1257 191.512 83.0706 190.918 83.0706C190.439 83.0706 189.949 83.0849 189.449 83.1135C188.953 83.138 188.449 83.1747 187.936 83.2237ZM188.025 82.2443C188.538 82.1708 189.04 82.1157 189.532 82.079C190.028 82.0382 190.515 82.0178 190.994 82.0178C192.08 82.0178 192.824 82.1402 193.226 82.3851C193.629 82.6258 193.83 83.0604 193.83 83.6889L193.83 84.5642C193.83 85.1028 193.644 85.5007 193.271 85.7578C192.898 86.0149 192.317 86.1434 191.529 86.1434L188.686 86.1434C187.838 86.1434 187.258 86.0006 186.944 85.7149C186.63 85.4293 186.473 84.907 186.473 84.1479L186.473 83.2971C186.473 82.0933 186.906 81.1629 187.77 80.5059C188.64 79.8448 189.863 79.5143 191.44 79.5143C191.499 79.5143 191.562 79.5163 191.63 79.5204C191.702 79.5204 191.798 79.5265 191.916 79.5388L192.845 80.5793L192.412 80.5793C190.984 80.5793 189.952 80.7058 189.316 80.9589C188.68 81.2078 188.25 81.6363 188.025 82.2443Z" fill="url(#paint31_linear_0_144)"/>
</g>
<path fill-rule="evenodd" clip-rule="evenodd" d="M244.034 156.95C242.404 161.322 240.945 164.659 240.791 164.365C240.638 164.071 239.972 161.025 239.312 157.597C238.652 154.169 237.839 150.929 237.506 150.397C236.925 149.468 236.665 149.431 230.95 149.452L225 149.475L227.601 150.466C229.031 151.012 230.525 151.596 230.921 151.764C231.341 151.943 231.936 153.174 232.352 154.727C232.744 156.187 234.003 160.864 235.15 165.12L237.236 172.857L240.448 172.981L243.659 173.105L248.293 161.805C250.841 155.59 253.052 150.166 253.206 149.752C253.457 149.078 253.149 149 250.241 149L246.996 149L244.034 156.95ZM255.786 150.397C255.651 151.166 254.864 155.953 254.038 161.036C253.213 166.119 252.429 170.906 252.296 171.675L252.053 173.072L255.1 173.072C257.902 173.072 258.163 172.995 258.37 172.105C258.655 170.876 262.063 149.917 262.063 149.392C262.063 149.176 260.706 149 259.048 149L256.034 149L255.786 150.397ZM270.137 149.631C266.594 150.884 264.226 154.503 264.837 157.732C265.175 159.519 267.519 161.785 270.663 163.365C273.68 164.881 274.225 166.575 272.055 167.688C270.331 168.572 267.725 168.514 265.121 167.532L262.969 166.721L262.696 168.714C262.546 169.811 262.337 171.022 262.231 171.406C261.97 172.356 264.934 173.072 269.126 173.072C274.395 173.072 277.519 171.48 279.069 168.004C280.822 164.075 279.379 161.337 273.984 158.357C270.974 156.694 270.452 155.502 272.229 154.347C273.34 153.626 276.445 153.639 278.819 154.377C279.828 154.69 279.96 154.458 280.468 151.469C280.717 150.009 280.634 149.812 279.611 149.427C277.975 148.81 272.101 148.937 270.137 149.631ZM290.827 149.288C290.315 149.392 289.602 149.806 289.242 150.206C288.758 150.744 281.954 166.374 279.522 172.535C279.364 172.936 280.138 173.072 282.571 173.072L285.832 173.072L286.446 171.245L287.059 169.418L291.021 169.295L294.983 169.171L295.253 170.369C295.885 173.183 295.743 173.072 298.711 173.072L301.489 173.072L301.208 171.675C301.053 170.906 299.937 165.539 298.726 159.746L296.525 149.215L294.141 149.157C292.83 149.125 291.338 149.184 290.827 149.288ZM293.212 160.499L294.029 164.475L291.438 164.475C289.143 164.475 288.881 164.389 289.152 163.723C289.319 163.309 290.061 161.342 290.799 159.352C291.538 157.362 292.199 155.912 292.269 156.128C292.338 156.345 292.763 158.312 293.212 160.499Z" fill="white"/>
<defs>
<filter id="filter0_i_0_144" x="21.9761" y="79.5143" width="173.854" height="7.78217" filterUnits="userSpaceOnUse" color-interpolation-filters="sRGB">
<feFlood flood-opacity="0" result="BackgroundImageFix"/>
<feBlend mode="normal" in="SourceGraphic" in2="BackgroundImageFix" result="shape"/>
<feColorMatrix in="SourceAlpha" type="matrix" values="0 0 0 0 0 0 0 0 0 0 0 0 0 0 0 0 0 0 127 0" result="hardAlpha"/>
<feOffset dx="2" dy="1"/>
<feGaussianBlur stdDeviation="1"/>
<feComposite in2="hardAlpha" operator="arithmetic" k2="-1" k3="1"/>
<feColorMatrix type="matrix" values="0 0 0 0 0 0 0 0 0 0 0 0 0 0 0 0 0 0 0.15 0"/>
<feBlend mode="normal" in2="shape" result="effect1_innerShadow_0_144"/>
</filter>
<linearGradient id="paint0_linear_0_144" x1="436.5" y1="6.10352e-05" x2="436.5" y2="334" gradientUnits="userSpaceOnUse">
<stop stop-color="#000F60"/>
<stop offset="1" stop-color="#13A7AA"/>
</linearGradient>
<linearGradient id="paint1_linear_0_144" x1="436.5" y1="6.10352e-05" x2="436.5" y2="334" gradientUnits="userSpaceOnUse">
<stop stop-color="#000F60"/>
<stop offset="1" stop-color="#13A7AA"/>
</linearGradient>
<linearGradient id="paint2_linear_0_144" x1="436.5" y1="6.10352e-05" x2="436.5" y2="334" gradientUnits="userSpaceOnUse">
<stop stop-color="#E42C64"/>
<stop offset="1" stop-color="#614AD3"/>
</linearGradient>
<linearGradient id="paint3_linear_0_144" x1="191.529" y1="68.0478" x2="191.529" y2="136.463" gradientUnits="userSpaceOnUse">
<stop stop-color="#7A3131" stop-opacity="0.5"/>
<stop offset="1" stop-color="#C05555" stop-opacity="0.1"/>
</linearGradient>
<linearGradient id="paint4_linear_0_144" x1="191.529" y1="68.0478" x2="191.529" y2="136.463" gradientUnits="userSpaceOnUse">
<stop stop-color="#7A3131" stop-opacity="0.5"/>
<stop offset="1" stop-color="#C05555" stop-opacity="0.1"/>
</linearGradient>
<linearGradient id="paint5_linear_0_144" x1="191.529" y1="68.0478" x2="191.529" y2="136.463" gradientUnits="userSpaceOnUse">
<stop stop-color="#7A3131" stop-opacity="0.5"/>
<stop offset="1" stop-color="#C05555" stop-opacity="0.1"/>
</linearGradient>
<linearGradient id="paint6_linear_0_144" x1="191.529" y1="68.0478" x2="191.529" y2="136.463" gradientUnits="userSpaceOnUse">
<stop stop-color="#7A3131" stop-opacity="0.5"/>
<stop offset="1" stop-color="#C05555" stop-opacity="0.1"/>
</linearGradient>
<linearGradient id="paint7_linear_0_144" x1="191.528" y1="-0.367197" x2="191.528" y2="68.048" gradientUnits="userSpaceOnUse">
<stop stop-color="#7A3131" stop-opacity="0.5"/>
<stop offset="1" stop-color="#C05555" stop-opacity="0.1"/>
</linearGradient>
<linearGradient id="paint8_linear_0_144" x1="191.528" y1="-0.367197" x2="191.528" y2="68.048" gradientUnits="userSpaceOnUse">
<stop stop-color="#7A3131" stop-opacity="0.5"/>
<stop offset="1" stop-color="#C05555" stop-opacity="0.1"/>
</linearGradient>
<linearGradient id="paint9_linear_0_144" x1="191.528" y1="-0.367197" x2="191.528" y2="68.048" gradientUnits="userSpaceOnUse">
<stop stop-color="#7A3131" stop-opacity="0.5"/>
<stop offset="1" stop-color="#C05555" stop-opacity="0.1"/>
</linearGradient>
<linearGradient id="paint10_linear_0_144" x1="191.528" y1="-0.367197" x2="191.528" y2="68.048" gradientUnits="userSpaceOnUse">
<stop stop-color="#7A3131" stop-opacity="0.5"/>
<stop offset="1" stop-color="#C05555" stop-opacity="0.1"/>
</linearGradient>
<linearGradient id="paint11_linear_0_144" x1="191.528" y1="136.463" x2="191.528" y2="204.878" gradientUnits="userSpaceOnUse">
<stop stop-color="#7A3131" stop-opacity="0.5"/>
<stop offset="1" stop-color="#C05555" stop-opacity="0.1"/>
</linearGradient>
<linearGradient id="paint12_linear_0_144" x1="191.528" y1="136.463" x2="191.528" y2="204.878" gradientUnits="userSpaceOnUse">
<stop stop-color="#7A3131" stop-opacity="0.5"/>
<stop offset="1" stop-color="#C05555" stop-opacity="0.1"/>
</linearGradient>
<linearGradient id="paint13_linear_0_144" x1="191.528" y1="136.463" x2="191.528" y2="204.878" gradientUnits="userSpaceOnUse">
<stop stop-color="#7A3131" stop-opacity="0.5"/>
<stop offset="1" stop-color="#C05555" stop-opacity="0.1"/>
</linearGradient>
<linearGradient id="paint14_linear_0_144" x1="191.528" y1="136.463" x2="191.528" y2="204.878" gradientUnits="userSpaceOnUse">
<stop stop-color="#7A3131" stop-opacity="0.5"/>
<stop offset="1" stop-color="#C05555" stop-opacity="0.1"/>
</linearGradient>
<linearGradient id="paint15_linear_0_144" x1="74.9876" y1="144.513" x2="111.163" y2="192.357" gradientUnits="userSpaceOnUse">
<stop stop-color="#D9C7E7"/>
<stop offset="1" stop-color="#B68DD6" stop-opacity="0.3"/>
</linearGradient>
<linearGradient id="paint16_linear_0_144" x1="18.7959" y1="89.12" x2="284.598" y2="89.12" gradientUnits="userSpaceOnUse">
<stop stop-color="#85C7EE"/>
<stop offset="1" stop-color="#809DD0"/>
</linearGradient>
<linearGradient id="paint17_linear_0_144" x1="18.7959" y1="89.12" x2="284.598" y2="89.12" gradientUnits="userSpaceOnUse">
<stop stop-color="#85C7EE"/>
<stop offset="1" stop-color="#809DD0"/>
</linearGradient>
<linearGradient id="paint18_linear_0_144" x1="18.7959" y1="89.12" x2="284.598" y2="89.12" gradientUnits="userSpaceOnUse">
<stop stop-color="#85C7EE"/>
<stop offset="1" stop-color="#809DD0"/>
</linearGradient>
<linearGradient id="paint19_linear_0_144" x1="18.7959" y1="89.12" x2="284.598" y2="89.12" gradientUnits="userSpaceOnUse">
<stop stop-color="#85C7EE"/>
<stop offset="1" stop-color="#809DD0"/>
</linearGradient>
<linearGradient id="paint20_linear_0_144" x1="18.7959" y1="89.12" x2="284.598" y2="89.12" gradientUnits="userSpaceOnUse">
<stop stop-color="#85C7EE"/>
<stop offset="1" stop-color="#809DD0"/>
</linearGradient>
<linearGradient id="paint21_linear_0_144" x1="18.7959" y1="89.12" x2="284.598" y2="89.12" gradientUnits="userSpaceOnUse">
<stop stop-color="#85C7EE"/>
<stop offset="1" stop-color="#809DD0"/>
</linearGradient>
<linearGradient id="paint22_linear_0_144" x1="18.7959" y1="89.12" x2="284.598" y2="89.12" gradientUnits="userSpaceOnUse">
<stop stop-color="#85C7EE"/>
<stop offset="1" stop-color="#809DD0"/>
</linearGradient>
<linearGradient id="paint23_linear_0_144" x1="18.7959" y1="89.12" x2="284.598" y2="89.12" gradientUnits="userSpaceOnUse">
<stop stop-color="#85C7EE"/>
<stop offset="1" stop-color="#809DD0"/>
</linearGradient>
<linearGradient id="paint24_linear_0_144" x1="18.7959" y1="89.12" x2="284.598" y2="89.12" gradientUnits="userSpaceOnUse">
<stop stop-color="#85C7EE"/>
<stop offset="1" stop-color="#809DD0"/>
</linearGradient>
<linearGradient id="paint25_linear_0_144" x1="18.7959" y1="89.12" x2="284.598" y2="89.12" gradientUnits="userSpaceOnUse">
<stop stop-color="#85C7EE"/>
<stop offset="1" stop-color="#809DD0"/>
</linearGradient>
<linearGradient id="paint26_linear_0_144" x1="18.7959" y1="89.12" x2="284.598" y2="89.12" gradientUnits="userSpaceOnUse">
<stop stop-color="#85C7EE"/>
<stop offset="1" stop-color="#809DD0"/>
</linearGradient>
<linearGradient id="paint27_linear_0_144" x1="18.7959" y1="89.12" x2="284.598" y2="89.12" gradientUnits="userSpaceOnUse">
<stop stop-color="#85C7EE"/>
<stop offset="1" stop-color="#809DD0"/>
</linearGradient>
<linearGradient id="paint28_linear_0_144" x1="18.7959" y1="89.12" x2="284.598" y2="89.12" gradientUnits="userSpaceOnUse">
<stop stop-color="#85C7EE"/>
<stop offset="1" stop-color="#809DD0"/>
</linearGradient>
<linearGradient id="paint29_linear_0_144" x1="18.7959" y1="89.12" x2="284.598" y2="89.12" gradientUnits="userSpaceOnUse">
<stop stop-color="#85C7EE"/>
<stop offset="1" stop-color="#809DD0"/>
</linearGradient>
<linearGradient id="paint30_linear_0_144" x1="18.7959" y1="89.12" x2="284.598" y2="89.12" gradientUnits="userSpaceOnUse">
<stop stop-color="#85C7EE"/>
<stop offset="1" stop-color="#809DD0"/>
</linearGradient>
<linearGradient id="paint31_linear_0_144" x1="18.7959" y1="89.12" x2="284.598" y2="89.12" gradientUnits="userSpaceOnUse">
<stop stop-color="#85C7EE"/>
<stop offset="1" stop-color="#809DD0"/>
</linearGradient>
</defs>
</svg>
