<svg width="28" height="20" viewBox="0 0 28 20" fill="none" xmlns="http://www.w3.org/2000/svg">
<rect width="28" height="20" rx="3" fill="url(#paint0_linear_90_3261)"/>
<path d="M14.1093 8.91823C14.0987 9.75401 14.8541 10.2204 15.4232 10.4977C16.0079 10.7823 16.2043 10.9647 16.2021 11.2191C16.1976 11.6086 15.7356 11.7804 15.3032 11.7871C14.5489 11.7988 14.1104 11.5835 13.7617 11.4206L13.49 12.6921C13.8398 12.8533 14.4875 12.9939 15.1593 13.0001C16.736 13.0001 17.7676 12.2217 17.7732 11.0149C17.7793 9.48342 15.6547 9.39861 15.6692 8.71403C15.6743 8.50648 15.8723 8.28498 16.3064 8.22863C16.5212 8.20017 17.1143 8.17841 17.7866 8.48807L18.0505 7.25783C17.689 7.12615 17.2242 7.00006 16.6456 7.00006C15.1615 7.00006 14.1176 7.78898 14.1093 8.91823ZM20.5863 7.10607C20.2984 7.10607 20.0557 7.27401 19.9475 7.53177L17.6951 12.9097H19.2707L19.5843 12.0432H21.5097L21.6916 12.9097H23.0803L21.8684 7.10607H20.5863ZM20.8067 8.67386L21.2614 10.8531H20.0161L20.8067 8.67386ZM12.1989 7.10607L10.957 12.9097H12.4583L13.6997 7.10607H12.1989ZM9.97778 7.10607L8.41501 11.0562L7.78287 7.69748C7.70867 7.32255 7.41575 7.10607 7.09048 7.10607H4.53571L4.5 7.27456C5.02446 7.38838 5.62033 7.57194 5.98131 7.76833C6.20225 7.88829 6.2653 7.99318 6.33783 8.27828L7.53515 12.9097H9.12191L11.5545 7.10607H9.97778Z" fill="white"/>
<defs>
<linearGradient id="paint0_linear_90_3261" x1="12.5781" y1="20" x2="19.0418" y2="0.661558" gradientUnits="userSpaceOnUse">
<stop stop-color="#222357"/>
<stop offset="1" stop-color="#254AA5"/>
</linearGradient>
</defs>
</svg>
