<svg width="28" height="28" viewBox="0 0 28 28" fill="none" xmlns="http://www.w3.org/2000/svg">
<g clip-path="url(#clip0_111_2310)">
<path d="M19.6159 6.61523C19.1018 6.61523 18.6851 7.03189 18.6851 7.546C18.6851 8.06011 19.1018 8.47677 19.6159 8.47677C22.6612 8.47677 25.1386 10.9542 25.1386 13.9994C25.1386 17.045 22.6608 19.5224 19.6159 19.5224H12.7901C12.276 19.5224 11.8594 19.9391 11.8594 20.4532C11.8594 20.9673 12.276 21.3839 12.7901 21.3839H19.6159C23.6875 21.3839 27.0002 18.0713 27.0002 13.9994C27.0002 9.9279 23.6875 6.61523 19.6159 6.61523Z" fill="white"/>
<path d="M14.0177 20.4513L17.5923 16.281C17.927 15.891 17.8817 15.3034 17.4914 14.969C17.1017 14.6345 16.5138 14.6788 16.1794 15.0698L12.0836 19.8479C11.7839 20.1972 11.7848 20.7132 12.0855 21.0616L16.1809 25.8086C16.3649 26.0217 16.6246 26.1313 16.8858 26.1313C17.1014 26.1313 17.3177 26.0571 17.4936 25.9051C17.8827 25.5694 17.9261 24.9817 17.5904 24.5924L14.0177 20.4513Z" fill="white"/>
<path d="M15.21 6.61523H8.38425C4.31266 6.61523 1 9.9279 1 13.9994C1 18.0713 4.31266 21.384 8.38425 21.384C8.89836 21.384 9.31502 20.9673 9.31502 20.4532C9.31502 19.9391 8.89836 19.5225 8.38425 19.5225C5.339 19.5225 2.86159 17.045 2.86159 13.9995C2.86159 10.9542 5.33905 8.47682 8.38425 8.47682H15.21C15.7241 8.47682 16.1408 8.06016 16.1408 7.54605C16.1408 7.03195 15.7241 6.61523 15.21 6.61523Z" fill="white"/>
<path d="M15.9145 6.93842L11.8191 2.19139C11.4836 1.8023 10.8954 1.75888 10.5063 2.0946C10.1169 2.43062 10.0735 3.01826 10.4095 3.40734L13.9819 7.5484L10.4073 11.719C10.0729 12.1093 10.1182 12.6969 10.5085 13.0314C10.6841 13.1818 10.8994 13.2554 11.1138 13.2554C11.376 13.2554 11.6369 13.1449 11.8212 12.9302L15.9163 8.15214C16.2161 7.80282 16.2151 7.28683 15.9145 6.93842Z" fill="white"/>
</g>
<defs>
<clipPath id="clip0_111_2310">
<rect width="26" height="26" fill="white" transform="translate(1 1)"/>
</clipPath>
</defs>
</svg>
