<svg width="21" height="22" viewBox="0 0 21 22" fill="none" xmlns="http://www.w3.org/2000/svg">
<path d="M5.87851 0.766763V3.83381" stroke="#1C2A3A" stroke-width="1.5" stroke-miterlimit="10" stroke-linecap="round" stroke-linejoin="round"/>
<path d="M14.0573 0.766763V3.83381" stroke="#1C2A3A" stroke-width="1.5" stroke-miterlimit="10" stroke-linecap="round" stroke-linejoin="round"/>
<path d="M1.27794 8.01519H18.6579" stroke="#1C2A3A" stroke-width="1.5" stroke-miterlimit="10" stroke-linecap="round" stroke-linejoin="round"/>
<path d="M17.3391 14.8446L13.72 18.4637C13.5768 18.6068 13.4439 18.8726 13.4132 19.0669L13.219 20.447C13.1474 20.948 13.495 21.2956 13.996 21.224L15.3762 21.0298C15.5704 20.9991 15.8464 20.8662 15.9793 20.7231L19.5985 17.104C20.2221 16.4803 20.5186 15.7545 19.5985 14.8344C18.6886 13.9245 17.9627 14.2209 17.3391 14.8446Z" stroke="#1C2A3A" stroke-width="1.5" stroke-miterlimit="10" stroke-linecap="round" stroke-linejoin="round"/>
<path d="M16.8177 15.366C17.1244 16.4701 17.9832 17.3289 19.0873 17.6356" stroke="#1C2A3A" stroke-width="1.5" stroke-miterlimit="10" stroke-linecap="round" stroke-linejoin="round"/>
<path d="M9.96792 21.2138H5.87851C2.30029 21.2138 0.766763 19.1691 0.766763 16.102V7.41204C0.766763 4.34499 2.30029 2.30029 5.87851 2.30029H14.0573C17.6355 2.30029 19.1691 4.34499 19.1691 7.41204V10.9903" stroke="#1C2A3A" stroke-width="1.5" stroke-miterlimit="10" stroke-linecap="round" stroke-linejoin="round"/>
<path d="M9.9633 12.7282H9.97248" stroke="#1C2A3A" stroke-width="2" stroke-linecap="round" stroke-linejoin="round"/>
<path d="M6.1794 12.7282H6.18859" stroke="#1C2A3A" stroke-width="2" stroke-linecap="round" stroke-linejoin="round"/>
<path d="M6.1794 15.7953H6.18859" stroke="#1C2A3A" stroke-width="2" stroke-linecap="round" stroke-linejoin="round"/>
</svg>
