<svg width="28" height="28" viewBox="0 0 28 28" fill="none" xmlns="http://www.w3.org/2000/svg">
<path d="M1.92702 18.4734L6.65923 18.4997C7.09357 18.5017 7.4732 18.2051 7.57142 17.7827L8.31354 14.6428C12.0901 14.0562 15.92 14.0384 19.7051 14.5914L20.4485 17.7365C20.5474 18.1557 20.9204 18.4523 21.3515 18.4536L26.0507 18.4734C26.5654 18.4754 26.9833 18.0601 26.9866 17.5467L27.0004 15.4291C26.9964 13.4215 25.7317 11.5939 23.852 10.8808L23.5389 10.7641C17.2585 8.37892 10.3547 8.41381 4.09739 10.8604C3.45216 11.1141 2.88466 11.4891 2.41805 11.9557C1.52698 12.8468 1.00299 14.0681 1.00037 15.3928L1.00037 17.5415C1.0004 18.0542 1.41362 18.4701 1.92702 18.4734ZM2.86491 15.3935C2.86688 14.1485 3.61625 13.0511 4.77691 12.5957C10.6025 10.3186 17.0305 10.2863 22.8805 12.5074L23.1936 12.6253C24.3529 13.0649 25.1339 14.1939 25.1359 15.4257L25.1286 16.6048L22.0942 16.5917L21.3731 13.5428C21.2848 13.1697 20.977 12.8883 20.5974 12.8342L20.0491 12.7565C16.0353 12.162 11.9668 12.1798 7.98064 12.8072L7.4336 12.8797C7.04868 12.9298 6.73695 13.2125 6.64796 13.5889L5.92826 16.6312L2.86485 16.6141L2.86491 15.3935Z" fill="white"/>
</svg>
