<svg width="13" height="13" viewBox="0 0 13 13" fill="none" xmlns="http://www.w3.org/2000/svg">
<path d="M7.6497 6.50013L12.7618 1.38783C13.0794 1.07048 13.0794 0.555567 12.7618 0.238216C12.4442 -0.0794054 11.9298 -0.0794054 11.6122 0.238216L6.50013 5.35051L1.38777 0.238216C1.07017 -0.0794054 0.555814 -0.0794054 0.238206 0.238216C-0.0794021 0.555567 -0.0794021 1.07048 0.238206 1.38783L5.35056 6.50013L0.238206 11.6124C-0.0794021 11.9298 -0.0794021 12.4447 0.238206 12.762C0.39701 12.9206 0.605136 13 0.81299 13C1.02084 13 1.22897 12.9206 1.38777 12.7618L6.50013 7.64947L11.6122 12.7618C11.771 12.9206 11.9791 13 12.187 13C12.3949 13 12.603 12.9206 12.7618 12.7618C13.0794 12.4444 13.0794 11.9295 12.7618 11.6122L7.6497 6.50013Z" fill="white"/>
</svg>
