<svg width="19" height="6" viewBox="0 0 19 6" fill="none" xmlns="http://www.w3.org/2000/svg">
<path d="M9.60927 1.91817C9.59867 2.75395 10.3541 3.22038 10.9232 3.49768C11.5079 3.78222 11.7043 3.96466 11.7021 4.21908C11.6976 4.60852 11.2356 4.78036 10.8032 4.78706C10.0489 4.79877 9.61038 4.58341 9.26168 4.42049L8.98996 5.69202C9.33979 5.85326 9.98755 5.99386 10.6593 6C12.236 6 13.2676 5.22168 13.2732 4.01488C13.2793 2.48336 11.1547 2.39855 11.1692 1.71397C11.1743 1.50642 11.3723 1.28492 11.8064 1.22857C12.0212 1.20011 12.6143 1.17835 13.2866 1.488L13.5505 0.257765C13.189 0.126093 12.7242 0 12.1456 0C10.6615 0 9.61764 0.788916 9.60927 1.91817ZM16.0863 0.106007C15.7984 0.106007 15.5557 0.273945 15.4475 0.531709L13.1951 5.90962H14.7707L15.0843 5.04315H17.0097L17.1916 5.90962H18.5803L17.3684 0.106007H16.0863ZM16.3067 1.6738L16.7614 3.85308H15.5161L16.3067 1.6738ZM7.69891 0.106007L6.45695 5.90962H7.95835L9.19975 0.106007H7.69891ZM5.47778 0.106007L3.91501 4.05617L3.28287 0.697415C3.20867 0.322484 2.91575 0.106007 2.59048 0.106007H0.0357077L0 0.274503C0.524456 0.388321 1.12033 0.571881 1.48131 0.768273C1.70225 0.888228 1.7653 0.993119 1.83783 1.27822L3.03515 5.90962H4.62191L7.0545 0.106007H5.47778Z" fill="white"/>
</svg>
