<svg width="201" height="48" viewBox="0 0 201 48" fill="none" xmlns="http://www.w3.org/2000/svg">
<path d="M190.5 14C184.71 14 180 18.2392 180 23.45C180 25.2714 180.576 27.0357 181.669 28.5614C181.462 30.8493 180.908 32.5479 180.103 33.3525C179.996 33.459 179.97 33.6217 180.037 33.7561C180.096 33.8762 180.219 33.95 180.35 33.95C180.366 33.95 180.382 33.9489 180.399 33.9465C180.54 33.9265 183.833 33.4527 186.215 32.0779C187.567 32.6235 189.008 32.9 190.5 32.9C196.29 32.9 201 28.6608 201 23.45C201 18.2392 196.29 14 190.5 14ZM185.6 24.85C184.828 24.85 184.2 24.2221 184.2 23.45C184.2 22.6779 184.828 22.05 185.6 22.05C186.372 22.05 187 22.6779 187 23.45C187 24.2221 186.372 24.85 185.6 24.85ZM190.5 24.85C189.728 24.85 189.1 24.2221 189.1 23.45C189.1 22.6779 189.728 22.05 190.5 22.05C191.272 22.05 191.9 22.6779 191.9 23.45C191.9 24.2221 191.272 24.85 190.5 24.85ZM195.4 24.85C194.628 24.85 194 24.2221 194 23.45C194 22.6779 194.628 22.05 195.4 22.05C196.172 22.05 196.8 22.6779 196.8 23.45C196.8 24.2221 196.172 24.85 195.4 24.85Z" fill="#858EA9"/>
<circle cx="100" cy="24" r="24" fill="#0066FF"/>
<path d="M91.0043 14C91.0036 14 91.0028 14 91.0021 14C90.7545 14 90.5216 14.0965 90.3458 14.2719C90.168 14.4493 90.0701 14.6854 90.0701 14.9368V28.9837C90.0701 29.4988 90.4908 29.9189 91.008 29.9202C93.1885 29.9254 96.8417 30.3799 99.3618 33.0172V18.3167C99.3618 18.1421 99.3172 17.9781 99.2331 17.8423C97.1646 14.5112 93.1897 14.0051 91.0043 14Z" fill="white"/>
<path d="M110.108 28.9838V14.9368C110.108 14.6854 110.01 14.4493 109.832 14.2719C109.657 14.0965 109.423 14 109.176 14C109.175 14 109.175 14 109.174 14C106.989 14.0052 103.014 14.5113 100.945 17.8424C100.861 17.9782 100.816 18.1422 100.816 18.3168V33.0172C103.337 30.3799 106.99 29.9254 109.17 29.9202C109.687 29.9189 110.108 29.4988 110.108 28.9838Z" fill="white"/>
<path d="M112.242 17.2395H111.563V28.9838C111.563 30.2989 110.491 31.3714 109.174 31.3746C107.324 31.3791 104.275 31.7407 102.115 33.7848C105.85 32.8703 109.788 33.4648 112.032 33.9762C112.312 34.04 112.602 33.9741 112.826 33.7951C113.05 33.6167 113.178 33.3498 113.178 33.0635V18.1761C113.179 17.6597 112.758 17.2395 112.242 17.2395Z" fill="white"/>
<path d="M88.6158 28.9838V17.2395H87.9366C87.4203 17.2395 87 17.6597 87 18.1761V33.0632C87 33.3497 87.1283 33.6164 87.352 33.7949C87.5764 33.9737 87.8657 34.0399 88.1463 33.9759C90.3904 33.4644 94.3282 32.87 98.0634 33.7846C95.9037 31.7405 92.8541 31.379 91.0046 31.3746C89.6875 31.3714 88.6158 30.2989 88.6158 28.9838Z" fill="white"/>
<path d="M19.4628 22.6502C19.4623 22.6498 19.4618 22.6493 19.4614 22.6488L11.3021 14.5365C10.9544 14.1906 10.492 14 10.0001 14C9.50828 14 9.0459 14.1904 8.69796 14.5364L0.542984 22.6446C0.540237 22.6473 0.53749 22.6502 0.534743 22.6529C-0.179441 23.3671 -0.17822 24.5259 0.538253 25.2383C0.865587 25.5639 1.29791 25.7525 1.76015 25.7722C1.77892 25.7741 1.79784 25.775 1.81692 25.775H2.14212V31.7451C2.14212 32.9265 3.10886 33.8877 4.29733 33.8877H7.48949C7.81301 33.8877 8.07549 33.6269 8.07549 33.3051V28.6245C8.07549 28.0854 8.51651 27.6469 9.05871 27.6469H10.9415C11.4837 27.6469 11.9248 28.0854 11.9248 28.6245V33.3051C11.9248 33.6269 12.1871 33.8877 12.5108 33.8877H15.7029C16.8914 33.8877 17.8581 32.9265 17.8581 31.7451V25.775H18.1597C18.6514 25.775 19.1138 25.5845 19.4618 25.2386C20.1791 24.525 20.1794 23.3643 19.4628 22.6502Z" fill="#858EA9"/>
</svg>
