<svg width="19" height="19" viewBox="0 0 19 19" fill="none" xmlns="http://www.w3.org/2000/svg">
<path d="M9.50001 0C4.26172 0 2.55317e-05 4.03733 2.55317e-05 9C2.55317e-05 10.7347 0.521258 12.415 1.50989 13.868C1.32274 16.047 0.821141 17.6647 0.0928087 18.431C-0.00345779 18.5323 -0.0275244 18.6873 0.0332755 18.8153C0.0871087 18.9297 0.197942 19 0.316692 19C0.331258 19 0.345825 18.999 0.360708 18.9967C0.488958 18.9777 3.46815 18.5263 5.62307 17.217C6.84667 17.7367 8.15006 18 9.50001 18C14.7383 18 19 13.9627 19 9C19 4.03733 14.7383 0 9.50001 0ZM5.06669 10.3333C4.36812 10.3333 3.80002 9.73533 3.80002 9C3.80002 8.26467 4.36812 7.66667 5.06669 7.66667C5.76525 7.66667 6.33335 8.26467 6.33335 9C6.33335 9.73533 5.76525 10.3333 5.06669 10.3333ZM9.50001 10.3333C8.80145 10.3333 8.23335 9.73533 8.23335 9C8.23335 8.26467 8.80145 7.66667 9.50001 7.66667C10.1986 7.66667 10.7667 8.26467 10.7667 9C10.7667 9.73533 10.1986 10.3333 9.50001 10.3333ZM13.9333 10.3333C13.2348 10.3333 12.6667 9.73533 12.6667 9C12.6667 8.26467 13.2348 7.66667 13.9333 7.66667C14.6319 7.66667 15.2 8.26467 15.2 9C15.2 9.73533 14.6319 10.3333 13.9333 10.3333Z" fill="white"/>
</svg>
