<svg width="17" height="22" viewBox="0 0 17 22" fill="none" xmlns="http://www.w3.org/2000/svg">
<path d="M8.18739 1.7502C4.81921 1.7502 2.08193 4.48748 2.08193 7.85566V10.7965C2.08193 11.4172 1.81736 12.3635 1.50191 12.8927L0.331696 14.8362C-0.390783 16.037 0.107829 17.37 1.43068 17.8177C5.81643 19.283 10.5482 19.283 14.9339 17.8177C16.1652 17.4107 16.7045 15.9556 16.0329 14.8362L14.8627 12.8927C14.5574 12.3635 14.2928 11.4172 14.2928 10.7965V7.85566C14.2928 4.49766 11.5454 1.7502 8.18739 1.7502Z" fill="white"/>
<path d="M10.0699 2.04533C9.75441 1.95375 9.42879 1.88252 9.09299 1.84181C8.11611 1.7197 7.17994 1.79093 6.30483 2.04533C6.59992 1.29232 7.33258 0.763182 8.18734 0.763182C9.04211 0.763182 9.77476 1.29232 10.0699 2.04533Z" stroke="white" stroke-width="1.5" stroke-miterlimit="10" stroke-linecap="round" stroke-linejoin="round"/>
<path d="M11.2402 18.1841C11.2402 19.8631 9.86644 21.2368 8.18744 21.2368C7.35303 21.2368 6.57967 20.8908 6.03018 20.3414C5.48069 19.7919 5.13471 19.0185 5.13471 18.1841" stroke="white" stroke-width="1.5" stroke-miterlimit="10"/>
</svg>
