<svg width="51" height="61" viewBox="0 0 51 61" fill="none" xmlns="http://www.w3.org/2000/svg">
<path d="M22.3748 0.471869L5.76733 6.69213C2.59681 7.89994 0 11.6442 0 15.0563V39.5146C0 41.9604 1.60036 45.1913 3.56306 46.6407L20.1705 59.051C23.0995 61.2553 27.9006 61.2553 30.8295 59.051L47.437 46.6407C49.3997 45.1611 51.0001 41.9604 51.0001 39.5146V15.0563C51.0001 11.6744 48.4033 7.89994 45.2328 6.72232L28.6253 0.502065C26.9343 -0.162235 24.096 -0.162235 22.3748 0.471869Z" fill="white"/>
<path d="M21.4688 37.2196C20.8951 37.2196 20.3213 37.0082 19.8684 36.5553L15.007 31.6938C14.1313 30.8181 14.1313 29.3688 15.007 28.4931C15.8826 27.6174 17.332 27.6174 18.2077 28.4931L21.4688 31.7542L32.8524 20.3705C33.7281 19.4949 35.1775 19.4949 36.0532 20.3705C36.9288 21.2462 36.9288 22.6956 36.0532 23.5712L23.0691 36.5553C22.6162 37.0082 22.0425 37.2196 21.4688 37.2196Z" fill="#292D32"/>
</svg>
