<svg width="282" height="48" viewBox="0 0 282 48" fill="none" xmlns="http://www.w3.org/2000/svg">
<path d="M95.0896 21.594L93.4571 15.143C93.3664 14.8779 93.185 14.7011 93.0037 14.5244C88.6505 12.4919 83.5717 12.4919 79.1278 14.5244C78.8558 14.6128 78.6744 14.7895 78.5837 15.0546L76.9512 21.594C76.9512 21.7708 76.9512 22.0359 77.1326 22.2126C77.2233 22.3893 77.4954 22.5661 77.6768 22.5661C80.4882 23.1847 83.209 23.4498 86.0204 23.4498C88.8318 23.4498 91.6433 23.1847 94.364 22.5661C94.6361 22.4777 94.8175 22.3893 94.9082 22.2126C95.0896 22.0359 95.0896 21.7708 95.0896 21.594ZM87.8342 19.1196H86.9273V20.0033C86.9273 20.5336 86.5645 20.8871 86.0204 20.8871C85.4762 20.8871 85.1135 20.5336 85.1135 20.0033V19.1196H84.2066C83.6624 19.1196 83.2996 18.7662 83.2996 18.2359C83.2996 17.7057 83.6624 17.3522 84.2066 17.3522H85.1135V16.4685C85.1135 15.9383 85.4762 15.5848 86.0204 15.5848C86.5645 15.5848 86.9273 15.9383 86.9273 16.4685V17.3522H87.8342C88.3784 17.3522 88.7411 17.7057 88.7411 18.2359C88.7411 18.7662 88.3784 19.1196 87.8342 19.1196Z" fill="#858EA9"/>
<path d="M95.3617 24.1567C95.1803 24.2451 94.9989 24.3335 94.8175 24.3335C91.9154 24.9521 88.9225 25.3056 86.0204 25.3056C83.1183 25.3056 80.1254 24.9521 77.2233 24.3335C77.0419 24.3335 76.8605 24.2451 76.6792 24.1567C75.9536 24.9521 75.7722 26.366 76.3164 27.8683C76.6792 29.0171 77.4047 29.9892 78.3116 30.431C78.493 30.5194 78.7651 30.6078 78.9465 30.6078C80.0348 33.7891 82.7555 35.91 86.0204 35.91C89.2853 35.91 92.0061 33.7891 93.0944 30.6078C93.3664 30.6078 93.5478 30.5194 93.8199 30.431C94.6361 30.0775 95.4523 29.1055 95.8151 27.8683C96.1779 26.366 95.9965 24.9521 95.3617 24.1567Z" fill="#858EA9"/>
<circle cx="258" cy="24" r="24" fill="#0066FF"/>
<path d="M257.5 14C251.71 14 247 18.2392 247 23.45C247 25.2714 247.576 27.0357 248.669 28.5614C248.462 30.8493 247.908 32.5479 247.103 33.3525C246.996 33.459 246.97 33.6217 247.037 33.7561C247.096 33.8762 247.219 33.95 247.35 33.95C247.366 33.95 247.382 33.9489 247.399 33.9465C247.54 33.9265 250.833 33.4527 253.215 32.0779C254.567 32.6235 256.008 32.9 257.5 32.9C263.29 32.9 268 28.6608 268 23.45C268 18.2392 263.29 14 257.5 14ZM252.6 24.85C251.828 24.85 251.2 24.2221 251.2 23.45C251.2 22.6779 251.828 22.05 252.6 22.05C253.372 22.05 254 22.6779 254 23.45C254 24.2221 253.372 24.85 252.6 24.85ZM257.5 24.85C256.728 24.85 256.1 24.2221 256.1 23.45C256.1 22.6779 256.728 22.05 257.5 22.05C258.272 22.05 258.9 22.6779 258.9 23.45C258.9 24.2221 258.272 24.85 257.5 24.85ZM262.4 24.85C261.628 24.85 261 24.2221 261 23.45C261 22.6779 261.628 22.05 262.4 22.05C263.172 22.05 263.8 22.6779 263.8 23.45C263.8 24.2221 263.172 24.85 262.4 24.85Z" fill="white"/>
<path d="M156.004 14C156.004 14 156.003 14 156.002 14C155.755 14 155.522 14.0965 155.346 14.2719C155.168 14.4493 155.07 14.6854 155.07 14.9368V28.9837C155.07 29.4988 155.491 29.9189 156.008 29.9202C158.189 29.9254 161.842 30.3799 164.362 33.0172V18.3167C164.362 18.1421 164.317 17.9781 164.233 17.8423C162.165 14.5112 158.19 14.0051 156.004 14Z" fill="#858EA9"/>
<path d="M175.108 28.9838V14.9368C175.108 14.6854 175.01 14.4493 174.832 14.2719C174.657 14.0965 174.423 14 174.176 14C174.175 14 174.175 14 174.174 14C171.989 14.0052 168.014 14.5113 165.945 17.8424C165.861 17.9782 165.816 18.1422 165.816 18.3168V33.0172C168.337 30.3799 171.99 29.9254 174.17 29.9202C174.687 29.9189 175.108 29.4988 175.108 28.9838Z" fill="#858EA9"/>
<path d="M177.242 17.2397H176.563V28.984C176.563 30.2992 175.491 31.3716 174.174 31.3749C172.324 31.3793 169.275 31.7409 167.115 33.7851C170.85 32.8705 174.788 33.465 177.032 33.9764C177.312 34.0402 177.602 33.9743 177.826 33.7954C178.05 33.6169 178.178 33.3501 178.178 33.0637V18.1764C178.179 17.6599 177.758 17.2397 177.242 17.2397Z" fill="#858EA9"/>
<path d="M153.616 28.984V17.2397H152.937C152.42 17.2397 152 17.6599 152 18.1764V33.0634C152 33.3499 152.128 33.6166 152.352 33.7951C152.576 33.974 152.866 34.0402 153.146 33.9762C155.39 33.4647 159.328 32.8702 163.063 33.7848C160.904 31.7408 157.854 31.3792 156.005 31.3748C154.687 31.3716 153.616 30.2992 153.616 28.984Z" fill="#858EA9"/>
<path d="M19.4628 22.6502C19.4623 22.6498 19.4618 22.6493 19.4614 22.6488L11.3021 14.5365C10.9544 14.1906 10.492 14 10.0001 14C9.50828 14 9.0459 14.1904 8.69796 14.5364L0.542984 22.6446C0.540237 22.6473 0.53749 22.6502 0.534743 22.6529C-0.179441 23.3671 -0.17822 24.5259 0.538253 25.2383C0.865587 25.5639 1.29791 25.7525 1.76015 25.7722C1.77892 25.7741 1.79784 25.775 1.81692 25.775H2.14212V31.7451C2.14212 32.9265 3.10886 33.8877 4.29733 33.8877H7.48949C7.81301 33.8877 8.07549 33.6269 8.07549 33.3051V28.6245C8.07549 28.0854 8.51651 27.6469 9.05871 27.6469H10.9415C11.4837 27.6469 11.9248 28.0854 11.9248 28.6245V33.3051C11.9248 33.6269 12.1871 33.8877 12.5108 33.8877H15.7029C16.8914 33.8877 17.8581 32.9265 17.8581 31.7451V25.775H18.1597C18.6514 25.775 19.1138 25.5845 19.4618 25.2386C20.1791 24.525 20.1794 23.3643 19.4628 22.6502Z" fill="#858EA9"/>
</svg>
