<svg width="28" height="28" viewBox="0 0 28 28" fill="none" xmlns="http://www.w3.org/2000/svg">
<path d="M2.7459 23H17.2234C18.1861 23 18.9693 22.1925 18.9693 21.2V6.80001C18.9693 5.80747 18.1861 5 17.2234 5H2.7459C1.7832 5 1 5.80747 1 6.80001V21.2C1 22.1925 1.7832 23 2.7459 23ZM3.09507 7.15999H16.8742V20.8399H3.09507V7.15999Z" fill="white"/>
<path d="M18.3931 11.5084L24.9049 8.12225V19.9047L18.3798 16.6287L17.4626 18.5709L25.4936 22.6029C25.8184 22.7656 26.2017 22.745 26.5076 22.5474C26.8139 22.3505 27 22.0042 27 21.6319V6.3679C27 5.99276 26.8114 5.64465 26.5017 5.44813C26.3337 5.34158 26.1435 5.28794 25.9524 5.28794C25.7911 5.28794 25.6294 5.32611 25.4807 5.40352L17.4496 9.5799L18.3931 11.5084Z" fill="white"/>
</svg>
