<svg width="22" height="22" viewBox="0 0 22 22" fill="none" xmlns="http://www.w3.org/2000/svg">
<g clip-path="url(#clip0_124_10622)">
<path d="M20.79 10.086C20.5845 9.66167 20.2419 9.31906 19.8176 9.11358L4.00875 1.46378C2.96734 0.959236 1.71415 1.39449 1.20961 2.43591C0.952569 2.96652 0.930962 3.5809 1.15015 4.12824L3.89912 10.9993L1.15015 17.8711C0.721967 18.949 1.24873 20.17 2.32669 20.5982C2.57042 20.695 2.83016 20.7453 3.09244 20.7465C3.40976 20.7465 3.72298 20.6749 4.00875 20.5369L19.8175 12.8851C20.859 12.3806 21.2944 11.1275 20.79 10.086ZM3.40043 19.2777C3.05324 19.4458 2.63553 19.3006 2.46746 18.9534C2.38181 18.7765 2.37469 18.5717 2.44778 18.3893L5.12411 11.6977H19.0653L3.40043 19.2777ZM5.12415 10.3009L2.44782 3.6093C2.33643 3.34256 2.40559 3.03453 2.62031 2.84105C2.82816 2.63852 3.142 2.59101 3.40043 2.72302L19.0653 10.3009H5.12415Z" fill="white"/>
</g>
<defs>
<clipPath id="clip0_124_10622">
<rect width="20" height="20" fill="white" transform="translate(1 1)"/>
</clipPath>
</defs>
</svg>
