<svg width="17" height="22" viewBox="0 0 17 22" fill="none" xmlns="http://www.w3.org/2000/svg">
<path d="M12.4617 0.377686V4.29699H16.381L12.4617 0.377686Z" fill="white"/>
<path d="M9.70544 8.25H7.05212C6.54991 9.12669 5.70187 9.7246 4.72644 9.90872V13.0023C4.72644 15.3336 6.18613 17.3586 8.37878 18.1009C10.5714 17.3586 12.0311 15.3336 12.0311 13.0023V9.90872C11.0557 9.7246 10.2077 9.12665 9.70544 8.25ZM10.6575 12.4318L8.22689 14.8625C8.10103 14.9883 7.93608 15.0513 7.77116 15.0513C7.60625 15.0513 7.44125 14.9884 7.31544 14.8625L6.10011 13.6471C5.8484 13.3954 5.8484 12.9873 6.10011 12.7356C6.35178 12.4839 6.75989 12.4839 7.0116 12.7356L7.77121 13.4952L9.74614 11.5203C9.9978 11.2686 10.4059 11.2686 10.6576 11.5203C10.9093 11.772 10.9093 12.1801 10.6575 12.4318Z" fill="white"/>
<path d="M11.8164 5.58594C11.4605 5.58594 11.1719 5.29736 11.1719 4.94141V0H2.36328C1.06017 0 0 1.06017 0 2.36328V19.6367C0 20.9398 1.06017 22 2.36328 22H14.3945C15.6976 22 16.7578 20.9398 16.7578 19.6367V5.58594H11.8164ZM13.3203 13.0022C13.3203 14.4483 12.864 15.8259 12.0008 16.9861C11.1376 18.1463 9.9492 18.9792 8.5641 19.3947C8.50369 19.4128 8.4413 19.4219 8.37891 19.4219C8.31652 19.4219 8.25412 19.4128 8.19371 19.3947C6.80861 18.9792 5.62018 18.1463 4.75698 16.9861C3.89378 15.8259 3.4375 14.4483 3.4375 13.0022V9.32422C3.4375 8.96827 3.72608 8.67969 4.08203 8.67969C4.8965 8.67969 5.62873 8.22714 5.99294 7.49869L6.08364 7.31728C6.19283 7.09887 6.41601 6.96094 6.66016 6.96094H10.0977C10.3418 6.96094 10.565 7.09887 10.6742 7.31723L10.7649 7.49869C11.1291 8.22714 11.8613 8.67969 12.6758 8.67969C13.0317 8.67969 13.3203 8.96827 13.3203 9.32422V13.0022Z" fill="white"/>
</svg>
