<svg width="268" height="48" viewBox="0 0 268 48" fill="none" xmlns="http://www.w3.org/2000/svg">
<circle cx="95" cy="24" r="24" fill="#0066FF"/>
<path d="M104.09 21.594L102.457 15.143C102.366 14.8779 102.185 14.7011 102.004 14.5244C97.6504 12.4919 92.5717 12.4919 88.1278 14.5244C87.8557 14.6128 87.6743 14.7895 87.5836 15.0546L85.9512 21.594C85.9512 21.7708 85.9512 22.0359 86.1326 22.2126C86.2232 22.3893 86.4953 22.5661 86.6767 22.5661C89.4881 23.1847 92.2089 23.4498 95.0203 23.4498C97.8318 23.4498 100.643 23.1847 103.364 22.5661C103.636 22.4777 103.817 22.3893 103.908 22.2126C104.09 22.0359 104.09 21.7708 104.09 21.594ZM96.8342 19.1196H95.9273V20.0033C95.9273 20.5336 95.5645 20.8871 95.0203 20.8871C94.4762 20.8871 94.1134 20.5336 94.1134 20.0033V19.1196H93.2065C92.6624 19.1196 92.2996 18.7662 92.2996 18.2359C92.2996 17.7057 92.6624 17.3522 93.2065 17.3522H94.1134V16.4685C94.1134 15.9383 94.4762 15.5848 95.0203 15.5848C95.5645 15.5848 95.9273 15.9383 95.9273 16.4685V17.3522H96.8342C97.3783 17.3522 97.7411 17.7057 97.7411 18.2359C97.7411 18.7662 97.3783 19.1196 96.8342 19.1196Z" fill="white"/>
<path d="M104.362 24.1567C104.18 24.2451 103.999 24.3335 103.818 24.3335C100.915 24.9521 97.9225 25.3056 95.0204 25.3056C92.1183 25.3056 89.1254 24.9521 86.2233 24.3335C86.0419 24.3335 85.8605 24.2451 85.6792 24.1567C84.9536 24.9521 84.7722 26.366 85.3164 27.8683C85.6792 29.0171 86.4047 29.9892 87.3116 30.431C87.493 30.5194 87.7651 30.6078 87.9465 30.6078C89.0348 33.7891 91.7555 35.91 95.0204 35.91C98.2853 35.91 101.006 33.7891 102.094 30.6078C102.366 30.6078 102.548 30.5194 102.82 30.431C103.636 30.0775 104.452 29.1055 104.815 27.8683C105.178 26.366 104.996 24.9521 104.362 24.1567Z" fill="white"/>
<path d="M257.5 14C251.71 14 247 18.2392 247 23.45C247 25.2714 247.576 27.0357 248.669 28.5614C248.462 30.8493 247.908 32.5479 247.103 33.3525C246.996 33.459 246.97 33.6217 247.037 33.7561C247.096 33.8762 247.219 33.95 247.35 33.95C247.366 33.95 247.382 33.9489 247.399 33.9465C247.54 33.9265 250.833 33.4527 253.215 32.0779C254.567 32.6235 256.008 32.9 257.5 32.9C263.29 32.9 268 28.6608 268 23.45C268 18.2392 263.29 14 257.5 14ZM252.6 24.85C251.828 24.85 251.2 24.2221 251.2 23.45C251.2 22.6779 251.828 22.05 252.6 22.05C253.372 22.05 254 22.6779 254 23.45C254 24.2221 253.372 24.85 252.6 24.85ZM257.5 24.85C256.728 24.85 256.1 24.2221 256.1 23.45C256.1 22.6779 256.728 22.05 257.5 22.05C258.272 22.05 258.9 22.6779 258.9 23.45C258.9 24.2221 258.272 24.85 257.5 24.85ZM262.4 24.85C261.628 24.85 261 24.2221 261 23.45C261 22.6779 261.628 22.05 262.4 22.05C263.172 22.05 263.8 22.6779 263.8 23.45C263.8 24.2221 263.172 24.85 262.4 24.85Z" fill="#858EA9"/>
<path d="M174.005 14C174.004 14 174.003 14 174.002 14C173.755 14 173.522 14.0965 173.346 14.2719C173.168 14.4493 173.07 14.6854 173.07 14.9368V28.9837C173.07 29.4988 173.491 29.9189 174.008 29.9202C176.189 29.9254 179.842 30.3799 182.362 33.0172V18.3167C182.362 18.1421 182.317 17.9781 182.233 17.8423C180.165 14.5112 176.19 14.0051 174.005 14Z" fill="#858EA9"/>
<path d="M193.108 28.9838V14.9368C193.108 14.6854 193.01 14.4493 192.832 14.2719C192.657 14.0965 192.423 14 192.176 14C192.175 14 192.175 14 192.174 14C189.989 14.0052 186.014 14.5113 183.945 17.8424C183.861 17.9782 183.816 18.1422 183.816 18.3168V33.0172C186.337 30.3799 189.99 29.9254 192.17 29.9202C192.687 29.9189 193.108 29.4988 193.108 28.9838Z" fill="#858EA9"/>
<path d="M195.242 17.2397H194.562V28.984C194.562 30.2992 193.491 31.3716 192.174 31.3749C190.324 31.3793 187.275 31.7409 185.115 33.7851C188.85 32.8705 192.788 33.465 195.032 33.9764C195.312 34.0402 195.602 33.9743 195.826 33.7954C196.05 33.6169 196.178 33.3501 196.178 33.0637V18.1764C196.178 17.6599 195.758 17.2397 195.242 17.2397Z" fill="#858EA9"/>
<path d="M171.616 28.984V17.2397H170.937C170.42 17.2397 170 17.6599 170 18.1764V33.0634C170 33.3499 170.128 33.6166 170.352 33.7951C170.576 33.974 170.866 34.0402 171.146 33.9762C173.39 33.4647 177.328 32.8702 181.063 33.7848C178.904 31.7408 175.854 31.3792 174.005 31.3748C172.687 31.3716 171.616 30.2992 171.616 28.984Z" fill="#858EA9"/>
<path d="M19.4628 22.6502C19.4623 22.6498 19.4618 22.6493 19.4614 22.6488L11.3021 14.5365C10.9544 14.1906 10.492 14 10.0001 14C9.50828 14 9.0459 14.1904 8.69796 14.5364L0.542984 22.6446C0.540237 22.6473 0.53749 22.6502 0.534743 22.6529C-0.179441 23.3671 -0.17822 24.5259 0.538253 25.2383C0.865587 25.5639 1.29791 25.7525 1.76015 25.7722C1.77892 25.7741 1.79784 25.775 1.81692 25.775H2.14212V31.7451C2.14212 32.9265 3.10886 33.8877 4.29733 33.8877H7.48949C7.81301 33.8877 8.07549 33.6269 8.07549 33.3051V28.6245C8.07549 28.0854 8.51651 27.6469 9.05871 27.6469H10.9415C11.4837 27.6469 11.9248 28.0854 11.9248 28.6245V33.3051C11.9248 33.6269 12.1871 33.8877 12.5108 33.8877H15.7029C16.8914 33.8877 17.8581 32.9265 17.8581 31.7451V25.775H18.1597C18.6514 25.775 19.1138 25.5845 19.4618 25.2386C20.1791 24.525 20.1794 23.3643 19.4628 22.6502Z" fill="#858EA9"/>
</svg>
