<svg width="22" height="22" viewBox="0 0 22 22" fill="none" xmlns="http://www.w3.org/2000/svg">
<g clip-path="url(#clip0_124_10630)">
<path d="M19.1269 3.40496C16.6342 0.912214 12.578 0.912214 10.0852 3.40496L2.33473 11.1553C0.554329 12.9359 0.554446 15.8332 2.33504 17.6137C3.22539 18.5041 4.39454 18.9492 5.56415 18.9491C6.73346 18.949 7.90315 18.504 8.79339 17.6137L15.8977 10.5093C16.9662 9.44111 16.9663 7.70275 15.8978 6.63415C14.8294 5.56583 13.0909 5.56587 12.0227 6.63435L7.37682 11.2801C7.02014 11.6367 7.02014 12.2151 7.37674 12.5718C7.7335 12.9285 8.3117 12.9285 8.66846 12.5718L13.3145 7.92591C13.6706 7.56978 14.25 7.56978 14.6061 7.9258C14.9622 8.28201 14.9622 8.86139 14.606 9.21752L7.50178 16.322C6.43334 17.3903 4.69505 17.3905 3.62669 16.3221C2.55836 15.2537 2.55824 13.5153 3.62645 12.4469L11.3769 4.69664C13.1575 2.91621 16.0547 2.91613 17.8353 4.69672C18.6979 5.55923 19.173 6.70607 19.1729 7.92587C19.1729 9.14572 18.6979 10.2925 17.8352 11.1551L10.085 18.9056C9.72831 19.2622 9.72831 19.8405 10.0851 20.1973C10.2634 20.3756 10.4972 20.4648 10.7309 20.4648C10.9646 20.4648 11.1984 20.3755 11.3768 20.1973L19.1268 12.4469C20.3345 11.2393 20.9995 9.63377 20.9995 7.92595C20.9996 6.21806 20.3346 4.6125 19.1269 3.40496Z" fill="#8EA0AB"/>
</g>
<defs>
<clipPath id="clip0_124_10630">
<rect width="20" height="20" fill="white" transform="translate(1 1)"/>
</clipPath>
</defs>
</svg>
