<svg width="61" height="56" viewBox="0 0 61 56" fill="none" xmlns="http://www.w3.org/2000/svg">
<path d="M29.5706 0.617688C29.9165 -0.205915 31.0835 -0.205916 31.4294 0.617688L39.0022 18.6487C39.1502 19.0012 39.4849 19.2396 39.8664 19.2643L60.0557 20.5732C60.9747 20.6328 61.3391 21.7919 60.6197 22.3667L45.1603 34.7168C44.8487 34.9658 44.7131 35.3751 44.8146 35.7609L49.7418 54.4878C49.9719 55.3622 49.0234 56.0739 48.2482 55.6085L31.0188 45.266C30.6995 45.0743 30.3005 45.0743 29.9812 45.266L12.7519 55.6085C11.9767 56.0739 11.0281 55.3622 11.2582 54.4878L16.1854 35.7609C16.2869 35.3751 16.1514 34.9658 15.8397 34.7168L0.380364 22.3667C-0.339125 21.7919 0.0253624 20.6328 0.944324 20.5732L21.1337 19.2643C21.5152 19.2396 21.8498 19.0012 21.9979 18.6487L29.5706 0.617688Z" fill="#F2F2F2"/>
</svg>
