<svg width="28" height="28" viewBox="0 0 28 28" fill="none" xmlns="http://www.w3.org/2000/svg">
<path d="M14 1C11.2795 1 9.06592 3.21355 9.06592 5.93411V14.2662C9.06592 16.9868 11.2795 19.2001 14 19.2001C16.7209 19.2001 18.9341 16.9732 18.9341 14.2364V5.93411C18.9341 3.21355 16.7209 1 14 1ZM17.1614 14.2364C17.1614 15.9958 15.7432 17.4273 14 17.4273C12.2568 17.4273 10.8386 16.0091 10.8386 14.2659V5.93411C10.8386 4.19094 12.2568 2.77272 14 2.77272C15.7432 2.77272 17.1614 4.19089 17.1614 5.93411V14.2364Z" fill="white"/>
<path d="M14.8864 21.416H13.1136V26.1137H14.8864V21.416Z" fill="white"/>
<path d="M17.5163 25.2271H10.4845C9.99495 25.2271 9.59814 25.6239 9.59814 26.1134C9.59814 26.603 9.99495 26.9998 10.4845 26.9998H17.516C18.0059 26.9998 18.4027 26.603 18.4027 26.1134C18.4027 25.6238 18.0059 25.2271 17.5163 25.2271Z" fill="white"/>
<path d="M21.1499 11.2231H18.0181V12.9959H20.2635V15.4481C20.2635 17.7498 17.4694 20.5297 13.9999 20.5297C10.546 20.5297 7.73627 17.7199 7.73627 14.2663V12.9959H9.95216V11.2231H6.84989C6.36031 11.2231 5.9635 11.6199 5.9635 12.1095V14.2664C5.9635 18.6976 9.56861 22.3024 13.9999 22.3024C18.5257 22.3024 22.0363 18.6178 22.0363 15.4482V12.1096C22.0363 11.6199 21.6395 11.2231 21.1499 11.2231Z" fill="white"/>
</svg>
