<svg width="23" height="7" viewBox="0 0 23 7" fill="none" xmlns="http://www.w3.org/2000/svg">
<path d="M20.6356 0H16.2076C16.4655 1.46168 17.8842 2.83737 19.4319 2.83737H22.9571C23.0001 2.7084 23.0001 2.49345 23.0001 2.36448C23.0001 1.07476 21.9253 0 20.6356 0Z" fill="#27B1E6"/>
<path d="M16.5942 3.0952V6.66341H18.7437V4.77183H20.6353C21.667 4.77183 22.5698 4.04099 22.8708 3.0952H16.5942Z" fill="#4FAD50"/>
<path d="M9.02761 0V6.62054H10.9192C10.9192 6.62054 11.3921 6.62054 11.65 6.14764C12.9397 3.6112 13.3267 2.83737 13.3267 2.83737H13.5846V6.62054H15.7341V0H13.8426C13.8426 0 13.3697 0.0429931 13.1117 0.472898C12.0369 2.66541 11.4351 3.78316 11.4351 3.78316H11.1771V0H9.02761Z" fill="#4FAD50"/>
<path d="M0 6.66354V0.043009H2.14952C2.14952 0.043009 2.7514 0.0430077 3.09532 0.988798C3.95513 3.48225 4.04111 3.82617 4.04111 3.82617C4.04111 3.82617 4.21307 3.2243 4.9869 0.988798C5.33082 0.0430077 5.93269 0.043009 5.93269 0.043009H8.08222V6.66354H5.93269V3.09534H5.67475L4.47102 6.66354H3.52522L2.3215 3.09534H2.06355V6.66354H0Z" fill="#4FAD50"/>
</svg>
