<svg width="20" height="23" viewBox="0 0 20 23" fill="none" xmlns="http://www.w3.org/2000/svg">
<path d="M19.0895 8.59401L17.4571 2.14298C17.3664 1.87787 17.185 1.70113 17.0036 1.52439C12.6504 -0.508129 7.57167 -0.508129 3.12777 1.52439C2.8557 1.61276 2.67431 1.7895 2.58362 2.05461L0.951172 8.59401C0.951172 8.77075 0.951172 9.03586 1.13256 9.2126C1.22325 9.38935 1.49532 9.56609 1.67671 9.56609C4.48815 10.1847 7.2089 10.4498 10.0203 10.4498C12.8318 10.4498 15.6432 10.1847 18.364 9.56609C18.6361 9.47772 18.8174 9.38935 18.9081 9.2126C19.0895 9.03586 19.0895 8.77075 19.0895 8.59401ZM11.8342 6.11964H10.9273V7.00335C10.9273 7.53357 10.5645 7.88705 10.0203 7.88705C9.47619 7.88705 9.11343 7.53357 9.11343 7.00335V6.11964H8.20651C7.66236 6.11964 7.29959 5.76616 7.29959 5.23594C7.29959 4.70572 7.66236 4.35224 8.20651 4.35224H9.11343V3.46853C9.11343 2.93831 9.47619 2.58483 10.0203 2.58483C10.5645 2.58483 10.9273 2.93831 10.9273 3.46853V4.35224H11.8342C12.3783 4.35224 12.7411 4.70572 12.7411 5.23594C12.7411 5.76616 12.3783 6.11964 11.8342 6.11964Z" fill="white"/>
<path d="M19.3617 11.1567C19.1803 11.2451 18.9989 11.3335 18.8175 11.3335C15.9154 11.9521 12.9225 12.3056 10.0204 12.3056C7.11827 12.3056 4.12544 11.9521 1.22331 11.3335C1.04193 11.3335 0.860543 11.2451 0.67916 11.1567C-0.046374 11.9521 -0.227757 13.366 0.316393 14.8683C0.67916 16.0171 1.40469 16.9892 2.31161 17.431C2.49299 17.5194 2.76507 17.6078 2.94645 17.6078C4.03475 20.7891 6.7555 22.91 10.0204 22.91C13.2853 22.91 16.0061 20.7891 17.0944 17.6078C17.3664 17.6078 17.5478 17.5194 17.8199 17.431C18.6361 17.0775 19.4523 16.1055 19.8151 14.8683C20.1779 13.366 19.9965 11.9521 19.3617 11.1567Z" fill="white"/>
</svg>
