<svg width="21" height="22" viewBox="0 0 21 22" fill="none" xmlns="http://www.w3.org/2000/svg">
<path d="M18.2006 3.15943C18.2006 2.3839 17.5738 1.75524 16.8006 1.75524H16.4506V2.80838C16.4506 3.19613 16.1372 3.51047 15.7506 3.51047H15.0506C15.4372 3.51047 15.7506 3.19613 15.7506 2.80838V0.702095C15.7506 0.314324 15.4372 0 15.0506 0C14.664 0 14.3506 0.314324 14.3506 0.702095V1.75524H12.6006V2.80838C12.6006 3.19613 12.2872 3.51047 11.9006 3.51047H11.2006C11.5872 3.51047 11.9006 3.19613 11.9006 2.80838V0.702095C11.9006 0.314324 11.5872 0 11.2006 0C10.814 0 10.5006 0.314324 10.5006 0.702095V1.75524H8.40055V2.80838C8.40055 3.19613 8.08714 3.51047 7.70055 3.51047H7.00054C7.38714 3.51047 7.70055 3.19613 7.70055 2.80838V0.702095C7.70055 0.314324 7.38714 0 7.00054 0C6.61395 0 6.30054 0.314324 6.30054 0.702095V1.75524H4.55052V2.80838C4.55052 3.19613 4.23711 3.51047 3.85052 3.51047H3.15051C3.53711 3.51047 3.85052 3.19613 3.85052 2.80838V0.702095C3.85052 0.314324 3.53711 0 3.15051 0C2.76392 0 2.45051 0.314324 2.45051 0.702095V1.75524H1.4005C0.627285 1.75524 0.000489319 2.3839 0.000489319 3.15943V5.26571H18.2006V3.15943Z" fill="white"/>
<path d="M17.15 13.3399C15.0237 13.3399 13.2999 15.0688 13.2999 17.2015C13.2999 19.3341 15.0237 21.063 17.15 21.063C19.2763 21.063 21 19.3341 21 17.2015C21 15.0688 19.2763 13.3399 17.15 13.3399ZM17.15 17.9036C17.0604 17.9036 16.9754 17.8851 16.8966 17.8543L15.6187 18.8799L15.1812 18.3314L16.4604 17.3052C16.4553 17.2711 16.45 17.237 16.45 17.2015C16.45 16.9422 16.5916 16.7184 16.8 16.5968V14.3931H17.5V16.5968C17.7083 16.7184 17.85 16.9422 17.85 17.2015C17.85 17.5892 17.5366 17.9036 17.15 17.9036Z" fill="white"/>
<path d="M1.40001 18.9566H12.9499C12.7252 18.4162 12.6001 17.8236 12.6001 17.2014C12.6001 15.3033 13.7559 13.6767 15.3997 12.9888H13.6501V10.8825H15.7501V12.8602C16.1914 12.7171 16.6613 12.6378 17.1501 12.6378C17.5122 12.6378 17.8625 12.6846 18.2001 12.7648V5.96786H0V17.5524C0 18.3282 0.626498 18.9566 1.40001 18.9566ZM13.6501 7.021H15.7501V9.12729H13.6501V7.021ZM9.80007 7.021H11.9001V9.12729H9.80007V7.021ZM9.80007 10.8825H11.9001V12.9888H9.80007V10.8825ZM9.80007 14.744H11.9001V16.8503H9.80007V14.744ZM5.95004 7.021H8.05006V9.12729H5.95004V7.021ZM5.95004 10.8825H8.05006V12.9888H5.95004V10.8825ZM5.95004 14.744H8.05006V16.8503H5.95004V14.744ZM2.10002 7.021H4.20003V9.12729H2.10002V7.021ZM2.10002 10.8825H4.20003V12.9888H2.10002V10.8825ZM2.10002 14.744H4.20003V16.8503H2.10002V14.744Z" fill="white"/>
</svg>
