<svg width="16" height="16" viewBox="0 0 16 16" fill="none" xmlns="http://www.w3.org/2000/svg">
<path fill-rule="evenodd" clip-rule="evenodd" d="M7.94665 0C7.46202 0.0247935 6.98126 0.404341 6.60985 1.13752L5.19976 3.95769C5.00975 4.34771 4.49972 4.72773 4.0697 4.79774L1.51954 5.21776C-0.110553 5.49778 -0.490576 6.67785 0.679494 7.84792L2.66961 9.83804C2.99963 10.1681 3.18964 10.8181 3.09964 11.2981L2.5296 13.7583C2.07958 15.6984 3.11964 16.4484 4.82974 15.4384L7.21988 14.0183C7.41911 13.8978 7.6806 13.8332 7.94665 13.8243V0Z" fill="#FEB052"/>
<path fill-rule="evenodd" clip-rule="evenodd" d="M7.9468 13.8257C8.255 13.8155 8.56933 13.8802 8.80012 14.0197L11.1903 15.4398C12.9004 16.4599 13.9404 15.6998 13.4904 13.7597L12.9204 11.2995C12.8104 10.8295 13.0004 10.1795 13.3304 9.84946L15.3205 7.85934C16.4906 6.67927 16.1106 5.4992 14.4805 5.22919L11.9303 4.80916C11.5003 4.72916 10.9902 4.35914 10.8002 3.96911L9.39015 1.14894C8.99153 0.356862 8.46694 -0.0251831 7.9468 0.00142159V13.8257Z" fill="#FEB052"/>
</svg>
