<svg width="18" height="20" viewBox="0 0 18 20" fill="none" xmlns="http://www.w3.org/2000/svg">
<path d="M14.4269 0.561915C14.2271 0.215313 13.855 0 13.456 0H9.28644V4.94676H16.9555L14.4269 0.561915Z" fill="white"/>
<path d="M8.11719 0H3.90827C3.50852 0 3.13647 0.215703 2.9366 0.563087L0.417356 4.94676H8.11715V0H8.11719Z" fill="white"/>
<path d="M0 6.11898V18.6217C0 19.3817 0.616753 19.9999 1.37453 19.9999H15.9911C16.7489 19.9999 17.3656 19.3817 17.3656 18.6217V6.11898H0ZM11.3356 11.3768L8.31305 14.4084C8.1989 14.5229 8.04926 14.5804 7.89967 14.5804C7.75008 14.5804 7.60045 14.5229 7.48668 14.4084L6.0697 12.9875C5.84179 12.759 5.84179 12.3877 6.0697 12.1587C6.298 11.9297 6.66815 11.9297 6.89645 12.1587L7.89971 13.1654L10.5093 10.548C10.7376 10.319 11.1078 10.319 11.3357 10.548C11.564 10.777 11.564 11.1478 11.3356 11.3768Z" fill="white"/>
</svg>
