<svg width="26" height="26" viewBox="0 0 26 26" fill="none" xmlns="http://www.w3.org/2000/svg">
<path d="M9.13333 0C5.73428 0 2.97093 2.76335 2.97093 6.1624C2.97093 9.49658 5.5786 12.1951 8.97765 12.3118C9.08144 12.2989 9.18523 12.2989 9.26307 12.3118C9.28901 12.3118 9.30199 12.3118 9.32793 12.3118C9.34091 12.3118 9.34091 12.3118 9.35388 12.3118C12.6751 12.1951 15.2828 9.49658 15.2957 6.1624C15.2957 2.76335 12.5324 0 9.13333 0Z" fill="#0066FF"/>
<path d="M15.7239 15.7626C12.1043 13.3496 6.20132 13.3496 2.55577 15.7626C0.908143 16.8654 0 18.3573 0 19.9531C0 21.5488 0.908143 23.0278 2.5428 24.1176C4.35909 25.3371 6.74621 25.9468 9.13333 25.9468C11.5204 25.9468 13.9076 25.3371 15.7239 24.1176C17.3585 23.0148 18.2667 21.5358 18.2667 19.9271C18.2537 18.3314 17.3585 16.8524 15.7239 15.7626Z" fill="#0066FF"/>
<path d="M23.3912 6.92798C23.5987 9.44483 21.8084 11.6503 19.3305 11.9487C19.3175 11.9487 19.3175 11.9487 19.3045 11.9487H19.2656C19.1878 11.9487 19.1099 11.9487 19.045 11.9747C17.7866 12.0395 16.632 11.6373 15.7628 10.8979C17.099 9.7043 17.8645 7.91396 17.7088 5.96794C17.618 4.91709 17.2547 3.95705 16.7098 3.13972C17.2028 2.89323 17.7736 2.73754 18.3575 2.68565C20.9003 2.4651 23.1706 4.35923 23.3912 6.92798Z" fill="#0066FF"/>
<path d="M25.9857 18.9282C25.882 20.1866 25.0776 21.2764 23.7284 22.0159C22.431 22.7294 20.7964 23.0667 19.1747 23.0278C20.1088 22.1845 20.6536 21.1337 20.7574 20.018C20.8872 18.4093 20.1217 16.8654 18.5909 15.6329C17.7216 14.9453 16.7097 14.4005 15.607 13.9983C18.4741 13.168 22.0807 13.7258 24.2992 15.5162C25.4928 16.4762 26.1025 17.6827 25.9857 18.9282Z" fill="#0066FF"/>
</svg>
