<svg width="14" height="14" viewBox="0 0 14 14" fill="none" xmlns="http://www.w3.org/2000/svg">
<path d="M13.5205 9.26738H8.68928C8.42453 9.26738 8.20996 9.05847 8.20996 8.80071C8.20996 8.54296 8.42453 8.33405 8.68928 8.33405H13.5203C13.785 8.33405 13.9996 8.54296 13.9996 8.80071C13.9996 9.05847 13.7852 9.26738 13.5205 9.26738Z" fill="#0066FF"/>
<path d="M7.52741 10.3987C6.62246 10.3987 5.88623 9.68191 5.88623 8.80084C5.88623 7.91962 6.62246 7.20282 7.52741 7.20282C8.43251 7.20282 9.16874 7.91962 9.16874 8.80084C9.16874 9.68175 8.43251 10.3987 7.52741 10.3987ZM7.52741 8.136C7.15098 8.136 6.84486 8.4342 6.84486 8.80069C6.84486 9.16702 7.15114 9.46522 7.52741 9.46522C7.90383 9.46522 8.21011 9.16702 8.21011 8.80069C8.21011 8.4342 7.90383 8.136 7.52741 8.136Z" fill="#0066FF"/>
<path d="M6.36547 9.26738H0.479315C0.214574 9.26738 0 9.05847 0 8.80071C0 8.54296 0.214574 8.33405 0.479315 8.33405H6.36563C6.63037 8.33405 6.84494 8.54296 6.84494 8.80071C6.84494 9.05847 6.63021 9.26738 6.36547 9.26738Z" fill="#0066FF"/>
<path d="M13.5206 5.66594H4.28742C4.02268 5.66594 3.80811 5.45703 3.80811 5.19927C3.80811 4.94152 4.02268 4.7326 4.28742 4.7326H13.5206C13.7854 4.7326 13.9999 4.94152 13.9999 5.19927C13.9999 5.45703 13.7854 5.66594 13.5206 5.66594Z" fill="#0066FF"/>
<path d="M3.12571 6.7973C2.2206 6.7973 1.48438 6.0805 1.48438 5.19928C1.48438 4.31806 2.2206 3.60126 3.12571 3.60126C4.03082 3.60126 4.76705 4.31806 4.76705 5.19928C4.76705 6.0805 4.03066 6.7973 3.12571 6.7973ZM3.12571 4.53459C2.74929 4.53459 2.44301 4.83279 2.44301 5.19928C2.44301 5.56577 2.74929 5.86397 3.12571 5.86397C3.50213 5.86397 3.80841 5.56577 3.80841 5.19928C3.80841 4.83279 3.50197 4.53459 3.12571 4.53459Z" fill="#0066FF"/>
<path d="M1.96344 5.66594H0.479315C0.214574 5.66594 0 5.45703 0 5.19927C0 4.94152 0.214574 4.7326 0.479315 4.7326H1.96344C2.22818 4.7326 2.44275 4.94152 2.44275 5.19927C2.44275 5.45703 2.22802 5.66594 1.96344 5.66594Z" fill="#0066FF"/>
<path d="M9.01896 2.06468H0.479315C0.214574 2.06468 0 1.85577 0 1.59801C0 1.34026 0.214574 1.13135 0.479315 1.13135H9.01896C9.2837 1.13135 9.49827 1.34026 9.49827 1.59801C9.49827 1.85577 9.2837 2.06468 9.01896 2.06468Z" fill="#0066FF"/>
<path d="M10.1807 3.19604C9.27578 3.19604 8.53955 2.47924 8.53955 1.59802C8.53955 0.7168 9.27578 0 10.1807 0C11.0858 0 11.8221 0.7168 11.8221 1.59802C11.8221 2.47924 11.0858 3.19604 10.1807 3.19604ZM10.1807 0.933333C9.80446 0.933333 9.49818 1.23153 9.49818 1.59802C9.49818 1.96451 9.80446 2.26271 10.1807 2.26271C10.5571 2.26271 10.8634 1.96451 10.8634 1.59802C10.8634 1.23153 10.5573 0.933333 10.1807 0.933333Z" fill="#0066FF"/>
<path d="M13.5208 2.06468H11.3431C11.0783 2.06468 10.8638 1.85577 10.8638 1.59801C10.8638 1.34026 11.0783 1.13135 11.3431 1.13135H13.5208C13.7855 1.13135 14.0001 1.34026 14.0001 1.59801C14.0001 1.85577 13.7855 2.06468 13.5208 2.06468Z" fill="#0066FF"/>
<path d="M13.5206 12.8688H4.28742C4.02268 12.8688 3.80811 12.6599 3.80811 12.4022C3.80811 12.1444 4.02268 11.9355 4.28742 11.9355H13.5206C13.7854 11.9355 13.9999 12.1444 13.9999 12.4022C13.9999 12.6599 13.7854 12.8688 13.5206 12.8688Z" fill="#0066FF"/>
<path d="M3.12571 14C2.2206 14 1.48438 13.2832 1.48438 12.4022C1.48438 11.5209 2.2206 10.8041 3.12571 10.8041C4.03082 10.8041 4.76705 11.5209 4.76705 12.4022C4.76689 13.2832 4.03066 14 3.12571 14ZM3.12571 11.7373C2.74929 11.7373 2.44301 12.0355 2.44301 12.402C2.44301 12.7683 2.74929 13.0665 3.12571 13.0665C3.50213 13.0665 3.80841 12.7683 3.80841 12.402C3.80826 12.0355 3.50197 11.7373 3.12571 11.7373Z" fill="#0066FF"/>
<path d="M1.96344 12.8688H0.479315C0.214574 12.8688 0 12.6599 0 12.4022C0 12.1444 0.214574 11.9355 0.479315 11.9355H1.96344C2.22818 11.9355 2.44275 12.1444 2.44275 12.4022C2.44275 12.6599 2.22802 12.8688 1.96344 12.8688Z" fill="#0066FF"/>
</svg>
