<svg width="18" height="18" viewBox="0 0 18 18" fill="none" xmlns="http://www.w3.org/2000/svg">
<path d="M9 18C6.59602 18 4.33593 17.0638 2.63602 15.364C0.936176 13.6641 0 11.404 0 9C0 6.59602 0.936176 4.33593 2.63602 2.63602C4.33593 0.936176 6.59602 0 9 0C11.404 0 13.6641 0.936176 15.364 2.63602C17.0638 4.33593 18 6.59602 18 9C18 11.404 17.0638 13.6641 15.364 15.364C13.6641 17.0638 11.404 18 9 18ZM9 1.40625C4.81279 1.40625 1.40625 4.81279 1.40625 9C1.40625 13.1872 4.81279 16.5938 9 16.5938C13.1872 16.5938 16.5938 13.1872 16.5938 9C16.5938 4.81279 13.1872 1.40625 9 1.40625ZM12.2954 10.5535C11.9678 10.345 11.5332 10.4415 11.3248 10.7692C11.3161 10.7828 10.4411 12.1311 8.96484 12.1311C7.48863 12.1311 6.61359 10.7828 6.60491 10.7692C6.39643 10.4416 5.96187 10.345 5.63425 10.5535C5.30662 10.762 5.21005 11.1966 5.41853 11.5241C5.47084 11.6063 6.72536 13.5373 8.96484 13.5373C11.2043 13.5373 12.4588 11.6064 12.5112 11.5241C12.7196 11.1965 12.6231 10.762 12.2954 10.5535ZM5.90625 5.80078C6.39165 5.80078 6.78516 6.19428 6.78516 6.67969C6.78516 7.16509 6.39165 7.55859 5.90625 7.55859C5.42085 7.55859 5.02734 7.16509 5.02734 6.67969C5.02734 6.19428 5.42085 5.80078 5.90625 5.80078ZM11.1797 6.67969C11.1797 7.16509 11.5732 7.55859 12.0586 7.55859C12.544 7.55859 12.9375 7.16509 12.9375 6.67969C12.9375 6.19428 12.544 5.80078 12.0586 5.80078C11.5732 5.80078 11.1797 6.19428 11.1797 6.67969Z" fill="#677294" fill-opacity="0.8"/>
</svg>
