<svg width="208" height="48" viewBox="0 0 208 48" fill="none" xmlns="http://www.w3.org/2000/svg">
<path d="M196.678 14C190.889 14 186.178 18.2392 186.178 23.45C186.178 25.2714 186.755 27.0357 187.847 28.5614C187.64 30.8493 187.086 32.5479 186.281 33.3525C186.175 33.459 186.148 33.6217 186.215 33.7561C186.275 33.8762 186.397 33.95 186.528 33.95C186.545 33.95 186.561 33.9489 186.577 33.9465C186.719 33.9265 190.012 33.4527 192.393 32.0779C193.746 32.6235 195.186 32.9 196.678 32.9C202.468 32.9 207.178 28.6608 207.178 23.45C207.178 18.2392 202.468 14 196.678 14ZM191.778 24.85C191.006 24.85 190.378 24.2221 190.378 23.45C190.378 22.6779 191.006 22.05 191.778 22.05C192.551 22.05 193.178 22.6779 193.178 23.45C193.178 24.2221 192.551 24.85 191.778 24.85ZM196.678 24.85C195.906 24.85 195.278 24.2221 195.278 23.45C195.278 22.6779 195.906 22.05 196.678 22.05C197.451 22.05 198.078 22.6779 198.078 23.45C198.078 24.2221 197.451 24.85 196.678 24.85ZM201.578 24.85C200.806 24.85 200.178 24.2221 200.178 23.45C200.178 22.6779 200.806 22.05 201.578 22.05C202.351 22.05 202.978 22.6779 202.978 23.45C202.978 24.2221 202.351 24.85 201.578 24.85Z" fill="#858EA9"/>
<path d="M108.004 14.0001C108.004 14.0001 108.003 14.0001 108.002 14.0001C107.754 14.0001 107.522 14.0966 107.346 14.272C107.168 14.4494 107.07 14.6855 107.07 14.9369V28.9838C107.07 29.4989 107.491 29.919 108.008 29.9203C110.188 29.9255 113.842 30.38 116.362 33.0173V18.3168C116.362 18.1422 116.317 17.9782 116.233 17.8425C114.165 14.5114 110.19 14.0052 108.004 14.0001Z" fill="#858EA9"/>
<path d="M127.108 28.9838V14.9368C127.108 14.6854 127.01 14.4493 126.832 14.2719C126.657 14.0965 126.423 14 126.176 14C126.175 14 126.175 14 126.174 14C123.989 14.0052 120.014 14.5113 117.945 17.8424C117.861 17.9782 117.816 18.1422 117.816 18.3168V33.0172C120.337 30.3799 123.99 29.9254 126.17 29.9202C126.687 29.9189 127.108 29.4988 127.108 28.9838Z" fill="#858EA9"/>
<path d="M129.242 17.2395H128.563V28.9838C128.563 30.2989 127.491 31.3714 126.174 31.3746C124.324 31.3791 121.275 31.7407 119.115 33.7848C122.85 32.8703 126.788 33.4648 129.032 33.9762C129.312 34.04 129.602 33.9741 129.826 33.7951C130.05 33.6167 130.178 33.3498 130.178 33.0635V18.1761C130.179 17.6597 129.758 17.2395 129.242 17.2395Z" fill="#858EA9"/>
<path d="M105.616 28.9838V17.2395H104.937C104.42 17.2395 104 17.6597 104 18.1761V33.0632C104 33.3497 104.128 33.6164 104.352 33.7949C104.576 33.9737 104.866 34.0399 105.146 33.9759C107.39 33.4644 111.328 32.87 115.063 33.7846C112.904 31.7405 109.854 31.379 108.005 31.3746C106.687 31.3714 105.616 30.2989 105.616 28.9838Z" fill="#858EA9"/>
<circle cx="24" cy="24" r="24" fill="#0066FF"/>
<path d="M33.4628 22.6502C33.4623 22.6498 33.4618 22.6493 33.4614 22.6488L25.3021 14.5365C24.9544 14.1906 24.492 14 24.0001 14C23.5083 14 23.0459 14.1904 22.698 14.5364L14.543 22.6446C14.5402 22.6473 14.5375 22.6502 14.5347 22.6529C13.8206 23.3671 13.8218 24.5259 14.5383 25.2383C14.8656 25.5639 15.2979 25.7525 15.7601 25.7722C15.7789 25.7741 15.7978 25.775 15.8169 25.775H16.1421V31.7451C16.1421 32.9265 17.1089 33.8877 18.2973 33.8877H21.4895C21.813 33.8877 22.0755 33.6269 22.0755 33.3051V28.6245C22.0755 28.0854 22.5165 27.6469 23.0587 27.6469H24.9415C25.4837 27.6469 25.9248 28.0854 25.9248 28.6245V33.3051C25.9248 33.6269 26.1871 33.8877 26.5108 33.8877H29.7029C30.8914 33.8877 31.8581 32.9265 31.8581 31.7451V25.775H32.1597C32.6514 25.775 33.1138 25.5845 33.4618 25.2386C34.1791 24.525 34.1794 23.3643 33.4628 22.6502Z" fill="white"/>
</svg>
