<svg width="21" height="23" viewBox="0 0 21 23" fill="none" xmlns="http://www.w3.org/2000/svg">
<path d="M5.87778 0.766667V3.83333" stroke="#771D1D" stroke-width="1.5" stroke-miterlimit="10" stroke-linecap="round" stroke-linejoin="round"/>
<path d="M14.0556 0.766667V3.83333" stroke="#771D1D" stroke-width="1.5" stroke-miterlimit="10" stroke-linecap="round" stroke-linejoin="round"/>
<path d="M1.27778 8.01419H18.6556" stroke="#771D1D" stroke-width="1.5" stroke-miterlimit="10" stroke-linecap="round" stroke-linejoin="round"/>
<path d="M16.1 22.2333C18.3582 22.2333 20.1889 20.4027 20.1889 18.1444C20.1889 15.8862 18.3582 14.0556 16.1 14.0556C13.8418 14.0556 12.0111 15.8862 12.0111 18.1444C12.0111 20.4027 13.8418 22.2333 16.1 22.2333Z" stroke="#771D1D" stroke-width="1.5" stroke-miterlimit="10" stroke-linecap="round" stroke-linejoin="round"/>
<path d="M17.1938 19.2791L15.0267 17.1222" stroke="#771D1D" stroke-width="1.5" stroke-miterlimit="10" stroke-linecap="round" stroke-linejoin="round"/>
<path d="M17.1733 17.1427L15.0062 19.3098" stroke="#771D1D" stroke-width="1.5" stroke-miterlimit="10" stroke-linecap="round" stroke-linejoin="round"/>
<path d="M19.1667 7.41111V15.4458C18.4204 14.5973 17.3267 14.0556 16.1 14.0556C13.8409 14.0556 12.0111 15.8853 12.0111 18.1444C12.0111 18.9111 12.2258 19.6369 12.604 20.2502C12.8187 20.6182 13.0947 20.9453 13.4116 21.2111H5.87778C2.3 21.2111 0.766667 19.1667 0.766667 16.1V7.41111C0.766667 4.34444 2.3 2.3 5.87778 2.3H14.0556C17.6333 2.3 19.1667 4.34444 19.1667 7.41111Z" stroke="#771D1D" stroke-width="1.5" stroke-miterlimit="10" stroke-linecap="round" stroke-linejoin="round"/>
<path d="M9.96205 12.7266H9.97123" stroke="#771D1D" stroke-width="2" stroke-linecap="round" stroke-linejoin="round"/>
<path d="M6.17863 12.7266H6.18781" stroke="#771D1D" stroke-width="2" stroke-linecap="round" stroke-linejoin="round"/>
<path d="M6.17863 15.7933H6.18781" stroke="#771D1D" stroke-width="2" stroke-linecap="round" stroke-linejoin="round"/>
</svg>
