<svg width="77" height="25" viewBox="0 0 77 25" fill="none" xmlns="http://www.w3.org/2000/svg">
<path fill-rule="evenodd" clip-rule="evenodd" d="M19.1608 8.00292C17.5204 12.4047 16.0515 15.7639 15.8971 15.4675C15.7422 15.1715 15.0719 12.1056 14.4077 8.65461C13.7431 5.20359 12.9248 1.94166 12.5897 1.40638C12.0045 0.471244 11.7427 0.433597 5.99026 0.455233L-2.10588e-08 0.477735L2.61831 1.47604C4.05838 2.02518 5.56216 2.61326 5.96015 2.78289C6.38344 2.96291 6.98216 4.20225 7.40153 5.76484C7.79602 7.23526 9.06328 11.9434 10.218 16.2274L12.3174 24.0166L15.551 24.1412L18.7842 24.2658L23.4487 12.8902C26.0142 6.63376 28.2398 1.174 28.3947 0.75728C28.6474 0.0787582 28.3375 1.2283e-06 25.4103 1.10142e-06L22.1435 9.59817e-07L19.1608 8.00292ZM30.9921 1.40638C30.8555 2.1801 30.0634 6.99942 29.2326 12.1165C28.4017 17.2335 27.6123 22.0528 27.4783 22.8265L27.2343 24.2329L30.3008 24.2329C33.1225 24.2329 33.3848 24.1555 33.5929 23.2593C33.8801 22.0221 37.3109 0.923016 37.3109 0.394219C37.3109 0.177421 35.945 1.55805e-06 34.2759 1.4857e-06L31.2412 1.35416e-06L30.9921 1.40638ZM45.4386 0.635683C41.872 1.89623 39.4885 5.53939 40.1033 8.79006C40.4437 10.5894 42.8033 12.8707 45.9684 14.4614C49.0052 15.9872 49.5541 17.6922 47.3696 18.8125C45.6336 19.7027 43.011 19.6442 40.3896 18.6563L38.2225 17.8398L37.948 19.8463C37.7975 20.9498 37.5867 22.1692 37.4802 22.5557C37.2171 23.512 40.2015 24.2329 44.4214 24.2329C49.7256 24.2329 52.8698 22.6305 54.4307 19.1315C56.195 15.1763 54.7423 12.4198 49.3115 9.41925C46.2812 7.74502 45.7558 6.54549 47.5446 5.38317C48.663 4.65662 51.7893 4.67003 54.1789 5.4126C55.1948 5.72849 55.3275 5.49482 55.8394 2.48517C56.0894 1.01562 56.0065 0.817863 54.9766 0.429704C53.3297 -0.191265 47.4163 -0.0631766 45.4386 0.635683ZM66.2668 0.290365C65.7519 0.395086 65.034 0.81094 64.6714 1.21424C64.1839 1.75602 57.3344 17.4905 54.8863 23.692C54.727 24.0957 55.5064 24.2329 57.9563 24.2329L61.2392 24.2329L61.8567 22.3938L62.4737 20.5547L66.4627 20.4305L70.4513 20.3063L70.7227 21.5123C71.3594 24.345 71.2158 24.2329 74.2038 24.2329L77.0001 24.2329L76.7173 22.8265C76.562 22.0528 75.4379 16.6493 74.219 10.8183L72.0035 0.216368L69.6034 0.15795C68.2833 0.125928 66.7817 0.185212 66.2668 0.290365ZM68.6682 11.5755L69.4904 15.5783L66.8821 15.5783C64.5714 15.5783 64.3083 15.4918 64.5806 14.821C64.7491 14.4047 65.4957 12.4246 66.2393 10.4215C66.9829 8.41834 67.6484 6.95788 67.7187 7.17597C67.7885 7.39407 68.2157 9.37425 68.6682 11.5755Z" fill="white"/>
</svg>
