<svg width="304" height="14" viewBox="0 0 304 14" fill="none" xmlns="http://www.w3.org/2000/svg">
<circle cx="4" cy="7" r="4" fill="#677294"/>
<circle cx="17" cy="7" r="4" fill="#677294"/>
<circle cx="30" cy="7" r="4" fill="#677294"/>
<circle cx="43" cy="7" r="4" fill="#677294"/>
<circle cx="56" cy="7" r="4" fill="#677294"/>
<circle cx="69" cy="7" r="4" fill="#677294"/>
<circle cx="82" cy="7" r="4" fill="#677294"/>
<circle cx="95" cy="7" r="4" fill="#677294"/>
<path d="M294.984 4.43207L297.305 6.75313L297.316 6.63155C297.316 5.41206 296.325 4.42102 295.105 4.42102L294.984 4.43207Z" fill="#677294"/>
<path d="M295.105 2.94744C297.139 2.94744 298.789 4.59798 298.789 6.63167C298.789 7.10693 298.694 7.56009 298.528 7.97639L300.683 10.1317C301.796 9.20324 302.673 8.00219 303.214 6.63167C301.936 3.39694 298.793 1.10535 295.105 1.10535C294.074 1.10535 293.086 1.28955 292.169 1.62113L293.761 3.20901C294.177 3.04692 294.63 2.94744 295.105 2.94744Z" fill="#677294"/>
<path d="M287.737 0.939474L289.417 2.61948L289.752 2.95475C288.536 3.90528 287.575 5.16898 287 6.63159C288.275 9.86631 291.421 12.1579 295.105 12.1579C296.247 12.1579 297.338 11.9369 298.336 11.5353L298.65 11.8484L300.797 14L301.737 13.0642L288.676 0L287.737 0.939474ZM291.812 5.01054L292.95 6.14896C292.917 6.3074 292.895 6.4658 292.895 6.63159C292.895 7.85107 293.886 8.84211 295.105 8.84211C295.271 8.84211 295.43 8.82001 295.584 8.78685L296.723 9.92527C296.233 10.1684 295.687 10.3158 295.105 10.3158C293.072 10.3158 291.421 8.66527 291.421 6.63159C291.421 6.04949 291.568 5.50422 291.812 5.01054Z" fill="#677294"/>
</svg>
