<svg width="16" height="16" viewBox="0 0 16 16" fill="none" xmlns="http://www.w3.org/2000/svg">
<path d="M6.10775 12.9775C6.32357 12.9775 6.50065 12.9001 6.64453 12.7562L10.889 8.61133C11.0771 8.42318 11.1712 8.22949 11.1712 7.99154C11.1712 7.75358 11.0827 7.55436 10.889 7.37175L6.64453 3.22135C6.49512 3.07747 6.31803 3 6.10775 3C5.68164 3 5.33301 3.3431 5.33301 3.76921C5.33301 3.97949 5.42155 4.17871 5.5765 4.33366L9.33952 7.99154L5.5765 11.6439C5.42155 11.7988 5.33301 11.998 5.33301 12.2083C5.33301 12.6344 5.68164 12.9775 6.10775 12.9775Z" fill="#8EA0AB"/>
</svg>
