<svg width="268" height="48" viewBox="0 0 268 48" fill="none" xmlns="http://www.w3.org/2000/svg">
<path d="M92.0896 21.594L90.4571 15.143C90.3664 14.8779 90.185 14.7011 90.0037 14.5244C85.6505 12.4919 80.5717 12.4919 76.1278 14.5244C75.8558 14.6128 75.6744 14.7895 75.5837 15.0546L73.9512 21.594C73.9512 21.7708 73.9512 22.0359 74.1326 22.2126C74.2233 22.3893 74.4954 22.5661 74.6768 22.5661C77.4882 23.1847 80.209 23.4498 83.0204 23.4498C85.8318 23.4498 88.6433 23.1847 91.364 22.5661C91.6361 22.4777 91.8175 22.3893 91.9082 22.2126C92.0896 22.0359 92.0896 21.7708 92.0896 21.594ZM84.8342 19.1196H83.9273V20.0033C83.9273 20.5336 83.5646 20.8871 83.0204 20.8871C82.4763 20.8871 82.1135 20.5336 82.1135 20.0033V19.1196H81.2066C80.6624 19.1196 80.2997 18.7662 80.2997 18.2359C80.2997 17.7057 80.6624 17.3522 81.2066 17.3522H82.1135V16.4685C82.1135 15.9383 82.4763 15.5848 83.0204 15.5848C83.5646 15.5848 83.9273 15.9383 83.9273 16.4685V17.3522H84.8342C85.3784 17.3522 85.7412 17.7057 85.7412 18.2359C85.7412 18.7662 85.3784 19.1196 84.8342 19.1196Z" fill="#858EA9"/>
<path d="M92.3617 24.1567C92.1803 24.2451 91.9989 24.3335 91.8175 24.3335C88.9154 24.9521 85.9225 25.3056 83.0204 25.3056C80.1183 25.3056 77.1254 24.9521 74.2233 24.3335C74.0419 24.3335 73.8605 24.2451 73.6792 24.1567C72.9536 24.9521 72.7722 26.366 73.3164 27.8683C73.6792 29.0171 74.4047 29.9892 75.3116 30.431C75.493 30.5194 75.7651 30.6078 75.9465 30.6078C77.0348 33.7891 79.7555 35.91 83.0204 35.91C86.2853 35.91 89.0061 33.7891 90.0944 30.6078C90.3664 30.6078 90.5478 30.5194 90.8199 30.431C91.6361 30.0775 92.4523 29.1055 92.8151 27.8683C93.1779 26.366 92.9965 24.9521 92.3617 24.1567Z" fill="#858EA9"/>
<path d="M257.5 14C251.71 14 247 18.2392 247 23.45C247 25.2714 247.576 27.0357 248.669 28.5614C248.462 30.8493 247.908 32.5479 247.103 33.3525C246.996 33.459 246.97 33.6217 247.037 33.7561C247.096 33.8762 247.219 33.95 247.35 33.95C247.366 33.95 247.382 33.9489 247.399 33.9465C247.54 33.9265 250.833 33.4527 253.215 32.0779C254.567 32.6235 256.008 32.9 257.5 32.9C263.29 32.9 268 28.6608 268 23.45C268 18.2392 263.29 14 257.5 14ZM252.6 24.85C251.828 24.85 251.2 24.2221 251.2 23.45C251.2 22.6779 251.828 22.05 252.6 22.05C253.372 22.05 254 22.6779 254 23.45C254 24.2221 253.372 24.85 252.6 24.85ZM257.5 24.85C256.728 24.85 256.1 24.2221 256.1 23.45C256.1 22.6779 256.728 22.05 257.5 22.05C258.272 22.05 258.9 22.6779 258.9 23.45C258.9 24.2221 258.272 24.85 257.5 24.85ZM262.4 24.85C261.628 24.85 261 24.2221 261 23.45C261 22.6779 261.628 22.05 262.4 22.05C263.172 22.05 263.8 22.6779 263.8 23.45C263.8 24.2221 263.172 24.85 262.4 24.85Z" fill="#858EA9"/>
<circle cx="170" cy="24" r="24" fill="#0066FF"/>
<path d="M161.004 14C161.004 14 161.003 14 161.002 14C160.755 14 160.522 14.0965 160.346 14.2719C160.168 14.4493 160.07 14.6854 160.07 14.9368V28.9837C160.07 29.4988 160.491 29.9189 161.008 29.9202C163.189 29.9254 166.842 30.3799 169.362 33.0172V18.3167C169.362 18.1421 169.317 17.9781 169.233 17.8423C167.165 14.5112 163.19 14.0051 161.004 14Z" fill="white"/>
<path d="M180.108 28.9838V14.9368C180.108 14.6854 180.01 14.4493 179.832 14.2719C179.656 14.0965 179.423 14 179.176 14C179.175 14 179.175 14 179.174 14C176.988 14.0052 173.014 14.5113 170.945 17.8424C170.861 17.9782 170.816 18.1422 170.816 18.3168V33.0172C173.337 30.3799 176.99 29.9254 179.17 29.9202C179.687 29.9189 180.108 29.4988 180.108 28.9838Z" fill="white"/>
<path d="M182.242 17.2397H181.563V28.984C181.563 30.2992 180.491 31.3716 179.174 31.3749C177.324 31.3793 174.275 31.7409 172.115 33.7851C175.85 32.8705 179.788 33.465 182.032 33.9764C182.312 34.0402 182.602 33.9743 182.826 33.7954C183.05 33.6169 183.178 33.3501 183.178 33.0637V18.1764C183.179 17.6599 182.758 17.2397 182.242 17.2397Z" fill="white"/>
<path d="M158.616 28.984V17.2397H157.937C157.42 17.2397 157 17.6599 157 18.1764V33.0634C157 33.3499 157.128 33.6166 157.352 33.7951C157.576 33.974 157.866 34.0402 158.146 33.9762C160.39 33.4647 164.328 32.8702 168.063 33.7848C165.904 31.7408 162.854 31.3792 161.005 31.3748C159.687 31.3716 158.616 30.2992 158.616 28.984Z" fill="white"/>
<path d="M19.4628 22.6502C19.4623 22.6498 19.4618 22.6493 19.4614 22.6488L11.3021 14.5365C10.9544 14.1906 10.492 14 10.0001 14C9.50828 14 9.0459 14.1904 8.69796 14.5364L0.542984 22.6446C0.540237 22.6473 0.53749 22.6502 0.534743 22.6529C-0.179441 23.3671 -0.17822 24.5259 0.538253 25.2383C0.865587 25.5639 1.29791 25.7525 1.76015 25.7722C1.77892 25.7741 1.79784 25.775 1.81692 25.775H2.14212V31.7451C2.14212 32.9265 3.10886 33.8877 4.29733 33.8877H7.48949C7.81301 33.8877 8.07549 33.6269 8.07549 33.3051V28.6245C8.07549 28.0854 8.51651 27.6469 9.05871 27.6469H10.9415C11.4837 27.6469 11.9248 28.0854 11.9248 28.6245V33.3051C11.9248 33.6269 12.1871 33.8877 12.5108 33.8877H15.7029C16.8914 33.8877 17.8581 32.9265 17.8581 31.7451V25.775H18.1597C18.6514 25.775 19.1138 25.5845 19.4618 25.2386C20.1791 24.525 20.1794 23.3643 19.4628 22.6502Z" fill="#858EA9"/>
</svg>
