<svg width="18" height="26" viewBox="0 0 18 26" fill="none" xmlns="http://www.w3.org/2000/svg">
<path d="M8.77002 16.8904C13.6136 16.8904 17.54 13.1094 17.54 8.44521C17.54 3.78105 13.6136 0 8.77002 0C3.92647 0 0 3.78105 0 8.44521C0 13.1094 3.92647 16.8904 8.77002 16.8904Z" fill="#0066FF"/>
<path d="M13.6941 17.6831C14.1229 17.4622 14.6166 17.787 14.6166 18.2678V24.5692C14.6166 25.7385 13.7981 26.3102 12.7846 25.8295L9.30261 24.1794C9.00378 24.0495 8.53604 24.0495 8.23721 24.1794L4.75519 25.8295C3.74176 26.2972 2.92323 25.7255 2.92323 24.5562L2.94921 18.2678C2.94921 17.787 3.45592 17.4752 3.87169 17.6831C5.33986 18.4237 7.00291 18.8394 8.76991 18.8394C10.5369 18.8394 12.213 18.4237 13.6941 17.6831Z" fill="#0066FF"/>
</svg>
