<svg width="281" height="48" viewBox="0 0 281 48" fill="none" xmlns="http://www.w3.org/2000/svg">
<path d="M122.09 21.594L120.457 15.143C120.366 14.8779 120.185 14.7011 120.004 14.5244C115.65 12.4919 110.572 12.4919 106.128 14.5244C105.856 14.6128 105.674 14.7895 105.584 15.0546L103.951 21.594C103.951 21.7708 103.951 22.0359 104.133 22.2126C104.223 22.3893 104.495 22.5661 104.677 22.5661C107.488 23.1847 110.209 23.4498 113.02 23.4498C115.832 23.4498 118.643 23.1847 121.364 22.5661C121.636 22.4777 121.817 22.3893 121.908 22.2126C122.09 22.0359 122.09 21.7708 122.09 21.594ZM114.834 19.1196H113.927V20.0033C113.927 20.5336 113.564 20.8871 113.02 20.8871C112.476 20.8871 112.113 20.5336 112.113 20.0033V19.1196H111.207C110.662 19.1196 110.3 18.7662 110.3 18.2359C110.3 17.7057 110.662 17.3522 111.207 17.3522H112.113V16.4685C112.113 15.9383 112.476 15.5848 113.02 15.5848C113.564 15.5848 113.927 15.9383 113.927 16.4685V17.3522H114.834C115.378 17.3522 115.741 17.7057 115.741 18.2359C115.741 18.7662 115.378 19.1196 114.834 19.1196Z" fill="#858EA9"/>
<path d="M122.362 24.1567C122.18 24.2451 121.999 24.3335 121.818 24.3335C118.915 24.9521 115.923 25.3056 113.02 25.3056C110.118 25.3056 107.125 24.9521 104.223 24.3335C104.042 24.3335 103.861 24.2451 103.679 24.1567C102.954 24.9521 102.772 26.366 103.316 27.8683C103.679 29.0171 104.405 29.9892 105.312 30.431C105.493 30.5194 105.765 30.6078 105.946 30.6078C107.035 33.7891 109.756 35.91 113.02 35.91C116.285 35.91 119.006 33.7891 120.094 30.6078C120.366 30.6078 120.548 30.5194 120.82 30.431C121.636 30.0775 122.452 29.1055 122.815 27.8683C123.178 26.366 122.996 24.9521 122.362 24.1567Z" fill="#858EA9"/>
<path d="M270.5 14C264.71 14 260 18.2392 260 23.45C260 25.2714 260.576 27.0357 261.669 28.5614C261.462 30.8493 260.908 32.5479 260.103 33.3525C259.996 33.459 259.97 33.6217 260.037 33.7561C260.096 33.8762 260.219 33.95 260.35 33.95C260.366 33.95 260.382 33.9489 260.399 33.9465C260.54 33.9265 263.833 33.4527 266.215 32.0779C267.567 32.6235 269.008 32.9 270.5 32.9C276.29 32.9 281 28.6608 281 23.45C281 18.2392 276.29 14 270.5 14ZM265.6 24.85C264.828 24.85 264.2 24.2221 264.2 23.45C264.2 22.6779 264.828 22.05 265.6 22.05C266.372 22.05 267 22.6779 267 23.45C267 24.2221 266.372 24.85 265.6 24.85ZM270.5 24.85C269.728 24.85 269.1 24.2221 269.1 23.45C269.1 22.6779 269.728 22.05 270.5 22.05C271.272 22.05 271.9 22.6779 271.9 23.45C271.9 24.2221 271.272 24.85 270.5 24.85ZM275.4 24.85C274.628 24.85 274 24.2221 274 23.45C274 22.6779 274.628 22.05 275.4 22.05C276.172 22.05 276.8 22.6779 276.8 23.45C276.8 24.2221 276.172 24.85 275.4 24.85Z" fill="#858EA9"/>
<path d="M182.005 14C182.004 14 182.003 14 182.002 14C181.755 14 181.522 14.0965 181.346 14.2719C181.168 14.4493 181.07 14.6854 181.07 14.9368V28.9837C181.07 29.4988 181.491 29.9189 182.008 29.9202C184.189 29.9254 187.842 30.3799 190.362 33.0172V18.3167C190.362 18.1421 190.317 17.9781 190.233 17.8423C188.165 14.5112 184.19 14.0051 182.005 14Z" fill="#858EA9"/>
<path d="M201.108 28.9838V14.9368C201.108 14.6854 201.01 14.4493 200.832 14.2719C200.657 14.0965 200.423 14 200.176 14C200.175 14 200.175 14 200.174 14C197.989 14.0052 194.014 14.5113 191.945 17.8424C191.861 17.9782 191.816 18.1422 191.816 18.3168V33.0172C194.337 30.3799 197.99 29.9254 200.17 29.9202C200.687 29.9189 201.108 29.4988 201.108 28.9838Z" fill="#858EA9"/>
<path d="M203.242 17.2395H202.562V28.9838C202.562 30.2989 201.491 31.3714 200.174 31.3746C198.324 31.3791 195.275 31.7407 193.115 33.7848C196.85 32.8703 200.788 33.4648 203.032 33.9762C203.312 34.04 203.602 33.9741 203.826 33.7951C204.05 33.6167 204.178 33.3498 204.178 33.0635V18.1761C204.178 17.6597 203.758 17.2395 203.242 17.2395Z" fill="#858EA9"/>
<path d="M179.616 28.9838V17.2395H178.937C178.42 17.2395 178 17.6597 178 18.1761V33.0632C178 33.3497 178.128 33.6164 178.352 33.7949C178.576 33.9737 178.866 34.0399 179.146 33.9759C181.39 33.4644 185.328 32.87 189.063 33.7846C186.904 31.7405 183.854 31.379 182.005 31.3746C180.687 31.3714 179.616 30.2989 179.616 28.9838Z" fill="#858EA9"/>
<circle cx="24" cy="24" r="24" fill="#0066FF"/>
<path d="M33.4628 22.6502C33.4623 22.6498 33.4618 22.6493 33.4614 22.6488L25.3021 14.5365C24.9544 14.1906 24.492 14 24.0001 14C23.5083 14 23.0459 14.1904 22.698 14.5364L14.543 22.6446C14.5402 22.6473 14.5375 22.6502 14.5347 22.6529C13.8206 23.3671 13.8218 24.5259 14.5383 25.2383C14.8656 25.5639 15.2979 25.7525 15.7601 25.7722C15.7789 25.7741 15.7978 25.775 15.8169 25.775H16.1421V31.7451C16.1421 32.9265 17.1089 33.8877 18.2973 33.8877H21.4895C21.813 33.8877 22.0755 33.6269 22.0755 33.3051V28.6245C22.0755 28.0854 22.5165 27.6469 23.0587 27.6469H24.9415C25.4837 27.6469 25.9248 28.0854 25.9248 28.6245V33.3051C25.9248 33.6269 26.1871 33.8877 26.5108 33.8877H29.7029C30.8914 33.8877 31.8581 32.9265 31.8581 31.7451V25.775H32.1597C32.6514 25.775 33.1138 25.5845 33.4618 25.2386C34.1791 24.525 34.1794 23.3643 33.4628 22.6502Z" fill="white"/>
</svg>
