<svg width="21" height="21" viewBox="0 0 21 21" fill="none" xmlns="http://www.w3.org/2000/svg">
<path fill-rule="evenodd" clip-rule="evenodd" d="M10.4301 0.000177188C9.79399 0.0327189 9.16299 0.53088 8.6755 1.49319L6.82475 5.19469C6.57536 5.7066 5.90594 6.20538 5.34152 6.29726L1.99442 6.84855C-0.145101 7.21608 -0.643885 8.76493 0.891845 10.3007L3.5039 12.9127C3.93705 13.3459 4.18645 14.1991 4.06831 14.8291L3.32014 18.0581C2.72947 20.6045 4.09456 21.5889 6.33909 20.2632L9.47618 18.3993C9.73767 18.2412 10.0809 18.1564 10.4301 18.1448V0.000177188Z" fill="#0066FF"/>
<path fill-rule="evenodd" clip-rule="evenodd" d="M10.43 18.1464C10.8345 18.133 11.247 18.2178 11.55 18.401L14.687 20.2649C16.9316 21.6037 18.2967 20.6062 17.706 18.0597L16.9578 14.8308C16.8134 14.2138 17.0628 13.3607 17.496 12.9275L20.108 10.3154C21.6438 8.76659 21.145 7.21774 19.0055 6.86334L15.6584 6.31205C15.0939 6.20704 14.4245 5.72139 14.1751 5.20948L12.3244 1.50797C11.8012 0.46836 11.1127 -0.0330783 10.43 0.00183674V18.1464Z" fill="#0066FF"/>
</svg>
