<svg width="207" height="48" viewBox="0 0 207 48" fill="none" xmlns="http://www.w3.org/2000/svg">
<circle cx="182.179" cy="24" r="24" fill="#0066FF"/>
<path d="M181.679 14C175.889 14 171.179 18.2392 171.179 23.45C171.179 25.2714 171.755 27.0357 172.848 28.5614C172.641 30.8493 172.086 32.5479 171.281 33.3525C171.175 33.459 171.148 33.6217 171.215 33.7561C171.275 33.8762 171.397 33.95 171.529 33.95C171.545 33.95 171.561 33.9489 171.577 33.9465C171.719 33.9265 175.012 33.4527 177.394 32.0779C178.746 32.6235 180.187 32.9 181.679 32.9C187.468 32.9 192.179 28.6608 192.179 23.45C192.179 18.2392 187.468 14 181.679 14ZM176.779 24.85C176.007 24.85 175.379 24.2221 175.379 23.45C175.379 22.6779 176.007 22.05 176.779 22.05C177.551 22.05 178.179 22.6779 178.179 23.45C178.179 24.2221 177.551 24.85 176.779 24.85ZM181.679 24.85C180.907 24.85 180.279 24.2221 180.279 23.45C180.279 22.6779 180.907 22.05 181.679 22.05C182.451 22.05 183.079 22.6779 183.079 23.45C183.079 24.2221 182.451 24.85 181.679 24.85ZM186.579 24.85C185.807 24.85 185.179 24.2221 185.179 23.45C185.179 22.6779 185.807 22.05 186.579 22.05C187.351 22.05 187.979 22.6779 187.979 23.45C187.979 24.2221 187.351 24.85 186.579 24.85Z" fill="white"/>
<path d="M80.0045 14C80.0038 14 80.003 14 80.0023 14C79.7547 14 79.5219 14.0965 79.346 14.2719C79.1682 14.4493 79.0703 14.6854 79.0703 14.9368V28.9837C79.0703 29.4988 79.491 29.9189 80.0082 29.9202C82.1887 29.9254 85.8419 30.3799 88.3621 33.0172V18.3167C88.3621 18.1421 88.3175 17.9781 88.2333 17.8423C86.1649 14.5112 82.19 14.0051 80.0045 14Z" fill="#858EA9"/>
<path d="M99.1081 28.9838V14.9368C99.1081 14.6854 99.0102 14.4493 98.8324 14.2719C98.6565 14.0965 98.4235 14 98.1762 14C98.1754 14 98.1746 14 98.1739 14C95.9885 14.0052 92.0136 14.5113 89.9451 17.8424C89.8609 17.9782 89.8164 18.1422 89.8164 18.3168V33.0172C92.3366 30.3799 95.9898 29.9254 98.1702 29.9202C98.6874 29.9189 99.1081 29.4988 99.1081 28.9838Z" fill="#858EA9"/>
<path d="M101.242 17.2395H100.563V28.9838C100.563 30.2989 99.4913 31.3714 98.1741 31.3746C96.3246 31.3791 93.275 31.7407 91.1152 33.7848C94.8506 32.8703 98.7883 33.4648 101.032 33.9762C101.313 34.04 101.602 33.9741 101.827 33.7951C102.05 33.6167 102.179 33.3498 102.179 33.0635V18.1761C102.179 17.6597 101.759 17.2395 101.242 17.2395Z" fill="#858EA9"/>
<path d="M77.6158 28.9838V17.2395H76.9366C76.4203 17.2395 76 17.6597 76 18.1761V33.0632C76 33.3497 76.1283 33.6164 76.352 33.7949C76.5764 33.9737 76.8657 34.0399 77.1463 33.9759C79.3904 33.4644 83.3282 32.87 87.0634 33.7846C84.9037 31.7405 81.8541 31.379 80.0046 31.3746C78.6875 31.3714 77.6158 30.2989 77.6158 28.9838Z" fill="#858EA9"/>
<path d="M19.4628 22.6502C19.4623 22.6498 19.4618 22.6493 19.4614 22.6488L11.3021 14.5365C10.9544 14.1906 10.492 14 10.0001 14C9.50828 14 9.0459 14.1904 8.69796 14.5364L0.542984 22.6446C0.540237 22.6473 0.53749 22.6502 0.534743 22.6529C-0.179441 23.3671 -0.17822 24.5259 0.538253 25.2383C0.865587 25.5639 1.29791 25.7525 1.76015 25.7722C1.77892 25.7741 1.79784 25.775 1.81692 25.775H2.14212V31.7451C2.14212 32.9265 3.10886 33.8877 4.29733 33.8877H7.48949C7.81301 33.8877 8.07549 33.6269 8.07549 33.3051V28.6245C8.07549 28.0854 8.51651 27.6469 9.05871 27.6469H10.9415C11.4837 27.6469 11.9248 28.0854 11.9248 28.6245V33.3051C11.9248 33.6269 12.1871 33.8877 12.5108 33.8877H15.7029C16.8914 33.8877 17.8581 32.9265 17.8581 31.7451V25.775H18.1597C18.6514 25.775 19.1138 25.5845 19.4618 25.2386C20.1791 24.525 20.1794 23.3643 19.4628 22.6502Z" fill="#858EA9"/>
</svg>
